<?xml version="1.0" encoding="UTF-8"?>
<svg xmlns="http://www.w3.org/2000/svg" xmlns:xlink="http://www.w3.org/1999/xlink" width="150pt" height="150pt" viewBox="0 0 150 150">
<path fill="none" stroke-width="0.869" stroke-linecap="round" stroke-linejoin="round" stroke="rgb(0%, 0%, 0%)" stroke-opacity="1" stroke-miterlimit="10" d="M 0.0013625 0.00009375 L 0.0013625 45.34775 C 0.0013625 46.804781 1.184956 47.992281 2.645894 47.992281 L 68.384175 47.992281 C 69.845112 47.992281 71.028706 46.804781 71.028706 45.34775 L 71.028706 0.00009375 C 71.028706 0.00009375 0.302144 0.300875 0.0013625 0.00009375 Z M 0.0013625 0.00009375 " transform="matrix(1, 0, 0, -1, 39.7877, 88.004)"/>
<path fill="none" stroke-width="0.869" stroke-linecap="round" stroke-linejoin="round" stroke="rgb(0%, 0%, 0%)" stroke-opacity="1" stroke-miterlimit="10" d="M -0.00153125 -0.00040625 L 3.662531 -0.00040625 " transform="matrix(1, 0, 0, -1, 73.232, 43.066)"/>
<path fill="none" stroke-width="0.869" stroke-linecap="round" stroke-linejoin="round" stroke="rgb(0%, 0%, 0%)" stroke-opacity="1" stroke-miterlimit="10" d="M 0.0013625 0.00153125 L 71.028706 0.00153125 " transform="matrix(1, 0, 0, -1, 39.7877, 45.482)"/>
<path fill="none" stroke-width="0.869" stroke-linecap="round" stroke-linejoin="round" stroke="rgb(0%, 0%, 0%)" stroke-opacity="1" stroke-miterlimit="10" d="M -0.00141875 -0.00181875 L 5.662644 -2.224475 L 9.154831 -25.2401 L 12.299363 -25.2401 " transform="matrix(1, 0, 0, -1, 55.0522, 52.9474)"/>
<path fill="none" stroke-width="0.869" stroke-linecap="round" stroke-linejoin="round" stroke="rgb(0%, 0%, 0%)" stroke-opacity="1" stroke-miterlimit="10" d="M 0.00175 0.00190625 L 27.497844 0.00190625 L 24.536906 -12.916062 " transform="matrix(1, 0, 0, -1, 61.217, 58.498)"/>
<path fill="none" stroke-width="0.869" stroke-linecap="round" stroke-linejoin="round" stroke="rgb(0%, 0%, 0%)" stroke-opacity="1" stroke-miterlimit="10" d="M -0.00135625 0.0005375 L -25.536513 0.0005375 " transform="matrix(1, 0, 0, -1, 88.7162, 71.4146)"/>
<path fill="none" stroke-width="0.869" stroke-linecap="round" stroke-linejoin="round" stroke="rgb(0%, 0%, 0%)" stroke-opacity="1" stroke-miterlimit="10" d="M -0.00010625 0.00110625 C -0.00010625 1.297981 -1.050887 2.348763 -2.351669 2.348763 C -3.648544 2.348763 -4.699325 1.297981 -4.699325 0.00110625 C -4.699325 -1.299675 -3.648544 -2.350456 -2.351669 -2.350456 C -1.050887 -2.350456 -0.00010625 -1.299675 -0.00010625 0.00110625 Z M -0.00010625 0.00110625 " transform="matrix(1, 0, 0, -1, 72.0587, 78.1847)"/>
<path fill="none" stroke-width="0.869" stroke-linecap="round" stroke-linejoin="round" stroke="rgb(0%, 0%, 0%)" stroke-opacity="1" stroke-miterlimit="10" d="M 0.00018125 0.00110625 C 0.00018125 1.297981 -1.0506 2.348763 -2.351381 2.348763 C -3.648256 2.348763 -4.702944 1.297981 -4.702944 0.00110625 C -4.702944 -1.299675 -3.648256 -2.350456 -2.351381 -2.350456 C -1.0506 -2.350456 0.00018125 -1.299675 0.00018125 0.00110625 Z M 0.00018125 0.00110625 " transform="matrix(1, 0, 0, -1, 86.1131, 78.1847)"/>
<path fill="none" stroke-width="0.869" stroke-linecap="round" stroke-linejoin="round" stroke="rgb(0%, 0%, 0%)" stroke-opacity="1" stroke-miterlimit="10" d="M 0.00096875 0 L -3.991219 0 " transform="matrix(1, 0, 0, -1, 90.1045, 78.1875)"/>
<path fill="none" stroke-width="0.869" stroke-linecap="round" stroke-linejoin="round" stroke="rgb(0%, 0%, 0%)" stroke-opacity="1" stroke-miterlimit="10" d="M -0.00155625 0 L -9.345306 0 " transform="matrix(1, 0, 0, -1, 81.4039, 78.1875)"/>
<path fill="none" stroke-width="0.869" stroke-linecap="round" stroke-linejoin="round" stroke="rgb(0%, 0%, 0%)" stroke-opacity="1" stroke-miterlimit="10" d="M 0.0013625 0.00009375 L -14.7877 -16.937406 L 85.2123 -16.937406 L 71.028706 0.00009375 Z M 0.0013625 0.00009375 " transform="matrix(1, 0, 0, -1, 39.7877, 88.004)"/>
<path fill="none" stroke-width="0.869" stroke-linecap="round" stroke-linejoin="round" stroke="rgb(0%, 0%, 0%)" stroke-opacity="1" stroke-miterlimit="10" d="M 0 -0.00160625 L 1.25 -2.821919 C 1.847656 -4.173481 3.1875 -5.048481 4.667969 -5.048481 L 95.851562 -5.048481 C 97.589844 -5.048481 99.097656 -3.849263 99.492188 -2.161763 L 100 -0.00160625 Z M 0 -0.00160625 " transform="matrix(1, 0, 0, -1, 25, 104.9398)"/>
<path fill="none" stroke-width="0.869" stroke-linecap="round" stroke-linejoin="round" stroke="rgb(0%, 0%, 0%)" stroke-opacity="1" stroke-miterlimit="10" d="M -0.00106875 0.00035625 L 8.721587 9.988638 L 76.549712 9.988638 L 84.912994 0.00035625 Z M -0.00106875 0.00035625 " transform="matrix(1, 0, 0, -1, 32.6456, 101.4652)"/>
<path fill="none" stroke-width="0.869" stroke-linecap="round" stroke-linejoin="round" stroke="rgb(0%, 0%, 0%)" stroke-opacity="1" stroke-miterlimit="10" d="M -0.001675 0.00170625 L 79.408481 0.00170625 " transform="matrix(1, 0, 0, -1, 35.4548, 98.2478)"/>
<path fill="none" stroke-width="0.869" stroke-linecap="round" stroke-linejoin="round" stroke="rgb(0%, 0%, 0%)" stroke-opacity="1" stroke-miterlimit="10" d="M -0.00116875 -0.00048125 L 72.053519 -0.00048125 " transform="matrix(1, 0, 0, -1, 39.2082, 94.8628)"/>
<path fill="none" stroke-width="0.869" stroke-linecap="round" stroke-linejoin="round" stroke="rgb(0%, 0%, 0%)" stroke-opacity="1" stroke-miterlimit="10" d="M 0.0012125 0.0012375 L 8.364494 -9.987044 " transform="matrix(1, 0, 0, -1, 109.1941, 91.4778)"/>
<path fill="none" stroke-width="0.869" stroke-linecap="round" stroke-linejoin="round" stroke="rgb(0%, 0%, 0%)" stroke-opacity="1" stroke-miterlimit="10" d="M 0.00028125 0.0012375 L -6.976281 -9.987044 " transform="matrix(1, 0, 0, -1, 48.113, 91.4778)"/>
<path fill="none" stroke-width="0.869" stroke-linecap="round" stroke-linejoin="round" stroke="rgb(0%, 0%, 0%)" stroke-opacity="1" stroke-miterlimit="10" d="M -0.000725 0.0012375 L -5.231194 -9.987044 " transform="matrix(1, 0, 0, -1, 54.8601, 91.4778)"/>
<path fill="none" stroke-width="0.869" stroke-linecap="round" stroke-linejoin="round" stroke="rgb(0%, 0%, 0%)" stroke-opacity="1" stroke-miterlimit="10" d="M -0.00173125 0.0012375 L -3.486106 -9.987044 " transform="matrix(1, 0, 0, -1, 61.6072, 91.4778)"/>
<path fill="none" stroke-width="0.869" stroke-linecap="round" stroke-linejoin="round" stroke="rgb(0%, 0%, 0%)" stroke-opacity="1" stroke-miterlimit="10" d="M 0.00116875 0.0012375 L -1.182425 -6.768294 " transform="matrix(1, 0, 0, -1, 68.3543, 91.4778)"/>
<path fill="none" stroke-width="0.869" stroke-linecap="round" stroke-linejoin="round" stroke="rgb(0%, 0%, 0%)" stroke-opacity="1" stroke-miterlimit="10" d="M 0.0000625 0.0012375 L 0.0000625 -6.768294 " transform="matrix(1, 0, 0, -1, 75.1015, 91.4778)"/>
<path fill="none" stroke-width="0.869" stroke-linecap="round" stroke-linejoin="round" stroke="rgb(0%, 0%, 0%)" stroke-opacity="1" stroke-miterlimit="10" d="M -0.001925 0.0012375 L 1.2012 -6.768294 " transform="matrix(1, 0, 0, -1, 82.0488, 91.4778)"/>
<path fill="none" stroke-width="0.869" stroke-linecap="round" stroke-linejoin="round" stroke="rgb(0%, 0%, 0%)" stroke-opacity="1" stroke-miterlimit="10" d="M 0.000975 0.0012375 L 3.489256 -9.987044 " transform="matrix(1, 0, 0, -1, 88.7959, 91.4778)"/>
<path fill="none" stroke-width="0.869" stroke-linecap="round" stroke-linejoin="round" stroke="rgb(0%, 0%, 0%)" stroke-opacity="1" stroke-miterlimit="10" d="M -0.00003125 0.0012375 L 5.230437 -9.987044 " transform="matrix(1, 0, 0, -1, 95.543, 91.4778)"/>
<path fill="none" stroke-width="0.869" stroke-linecap="round" stroke-linejoin="round" stroke="rgb(0%, 0%, 0%)" stroke-opacity="1" stroke-miterlimit="10" d="M -0.0010375 0.0012375 L 6.975525 -9.987044 " transform="matrix(1, 0, 0, -1, 102.2901, 91.4778)"/>
</svg>
