<?xml version="1.0" encoding="UTF-8"?>
<svg xmlns="http://www.w3.org/2000/svg" xmlns:xlink="http://www.w3.org/1999/xlink" width="150pt" height="150pt" viewBox="0 0 150 150">
<path fill="none" stroke-width="0.869" stroke-linecap="round" stroke-linejoin="round" stroke="rgb(0%, 0%, 0%)" stroke-opacity="1" stroke-miterlimit="10" d="M 0.0014125 0.000275 C -1.080619 5.148713 -5.643119 9.0159 -11.115775 9.0159 C -17.385306 9.0159 -22.467337 3.929963 -22.467337 -2.339569 C -22.467337 -3.628631 -22.2564 -4.866912 -21.857962 -6.019256 " transform="matrix(1, 0, 0, -1, 61.6314, 41.3909)"/>
<path fill="none" stroke-width="0.869" stroke-linecap="round" stroke-linejoin="round" stroke="rgb(0%, 0%, 0%)" stroke-opacity="1" stroke-miterlimit="10" d="M -0.000275 0.000775 C -0.000275 0.000775 -2.351838 3.778119 -9.023713 3.778119 C -15.29715 3.778119 -20.379181 -1.303913 -20.379181 -7.57735 C -20.379181 -11.690631 -18.191681 -15.2961 -14.910431 -17.288288 C -11.320588 -19.467975 -9.023713 -21.7961 -9.023713 -25.999225 L -9.023713 -27.667194 " transform="matrix(1, 0, 0, -1, 50.7659, 51.0164)"/>
<path fill="none" stroke-width="0.869" stroke-linecap="round" stroke-linejoin="round" stroke="rgb(0%, 0%, 0%)" stroke-opacity="1" stroke-miterlimit="10" d="M 0.000975 -0.0006125 C 0.430662 1.198606 0.665037 2.491575 0.665037 3.839231 C 0.665037 10.108762 -4.4209 15.1947 -10.690431 15.1947 C -16.092775 15.1947 -20.612306 11.421262 -21.760744 6.370481 " transform="matrix(1, 0, 0, -1, 112.4209, 47.5697)"/>
<path fill="none" stroke-width="0.869" stroke-linecap="round" stroke-linejoin="round" stroke="rgb(0%, 0%, 0%)" stroke-opacity="1" stroke-miterlimit="10" d="M -0.00043125 0.000875 C -0.00043125 0.000875 2.351131 3.778219 9.023006 3.778219 C 15.296444 3.778219 20.378475 -1.303813 20.378475 -7.57725 C 20.378475 -11.690531 18.190975 -15.296 14.913631 -17.288188 C 11.319881 -19.467875 9.023006 -21.796 9.023006 -25.999125 L 9.023006 -27.667094 " transform="matrix(1, 0, 0, -1, 100.6684, 51.0165)"/>
<path fill="none" stroke-width="0.869" stroke-linecap="round" stroke-linejoin="round" stroke="rgb(0%, 0%, 0%)" stroke-opacity="1" stroke-miterlimit="10" d="M 0.0013875 0.00194375 C 0.0013875 0.00194375 1.614669 -5.412119 8.313888 -9.396494 C 15.013106 -13.373056 18.704513 -25.123056 18.704513 -25.123056 L 27.735763 -22.501962 L 23.657638 -7.646494 " transform="matrix(1, 0, 0, -1, 73.6783, 98.3496)"/>
<path fill="none" stroke-width="0.869" stroke-linecap="round" stroke-linejoin="round" stroke="rgb(0%, 0%, 0%)" stroke-opacity="1" stroke-miterlimit="10" d="M 0.00175625 0.00046875 C 0.00175625 0.00046875 8.325975 -5.534688 18.7166 0.777812 C 29.103319 7.086406 25.634569 16.52 25.634569 16.52 " transform="matrix(1, 0, 0, -1, 90.6584, 103.9575)"/>
<path fill="none" stroke-width="0.869" stroke-linecap="round" stroke-linejoin="round" stroke="rgb(0%, 0%, 0%)" stroke-opacity="1" stroke-miterlimit="10" d="M 0.0014625 0.0002375 C 0.0014625 0.0002375 -3.045413 5.437737 -10.135256 5.437737 C -17.221194 5.437737 -20.424319 -0.245856 -20.424319 -5.609138 C -20.424319 -10.972419 -16.373538 -19.67945 0.0014625 -30.0857 " transform="matrix(1, 0, 0, -1, 75.9126, 57.3518)"/>
<path fill="none" stroke-width="0.869" stroke-linecap="round" stroke-linejoin="round" stroke="rgb(0%, 0%, 0%)" stroke-opacity="1" stroke-miterlimit="10" d="M -0.00106875 0.001575 L -0.00106875 -25.146862 C -0.00106875 -25.146862 3.045806 -19.709362 10.13565 -19.709362 C 17.221587 -19.709362 20.424712 -25.392956 20.424712 -30.756237 C 20.424712 -36.119519 16.373931 -44.82655 -0.00106875 -55.2328 " transform="matrix(1, 0, 0, -1, 75.8956, 32.2047)"/>
<path fill="none" stroke-width="0.869" stroke-linecap="round" stroke-linejoin="round" stroke="rgb(0%, 0%, 0%)" stroke-opacity="1" stroke-miterlimit="10" d="M -0.0017625 0.00034375 C -5.333794 -0.93325 -9.388481 -5.581688 -9.388481 -11.18325 C -9.388481 -12.081688 -9.279106 -12.952781 -9.083794 -13.788719 C -12.115044 -16.7145 -14.001763 -20.816063 -14.001763 -25.362938 C -14.001763 -34.241844 -6.802544 -41.441063 2.076362 -41.441063 C 5.892769 -41.441063 9.396675 -40.109031 12.154487 -37.890281 C 11.986519 -38.734031 11.896675 -39.609031 11.896675 -40.503563 C 11.896675 -47.948875 17.931831 -53.984031 25.377144 -53.984031 C 29.627144 -53.984031 33.420112 -52.011375 35.888862 -48.937156 C 37.50605 -50.597313 39.763862 -51.628563 42.259956 -51.628563 C 45.545112 -51.628563 48.408394 -49.843406 49.951362 -47.194969 C 51.127144 -47.765281 52.44355 -48.097313 53.838081 -48.097313 C 58.572456 -48.097313 62.431831 -44.398094 62.713081 -39.737938 C 64.88105 -40.823875 67.326362 -41.441063 69.916206 -41.441063 C 78.799019 -41.441063 85.998237 -34.241844 85.998237 -25.362938 C 85.998237 -20.769188 84.072456 -16.632469 80.986519 -13.702781 C 81.170112 -12.890281 81.271675 -12.050438 81.271675 -11.18325 C 81.271675 -5.851219 77.5998 -1.378563 72.642769 -0.159813 C 73.076362 1.039406 73.310737 2.332375 73.310737 3.680031 C 73.310737 9.949562 68.228706 15.0355 61.955269 15.0355 C 60.517769 15.0355 59.146675 14.765969 57.88105 14.277687 C 56.650581 19.219094 52.185737 22.883156 46.861519 22.883156 C 41.88105 22.883156 37.650581 19.672219 36.119331 15.207375 C 34.591987 19.672219 30.361519 22.883156 25.377144 22.883156 C 20.107612 22.883156 15.681831 19.293312 14.396675 14.430031 " transform="matrix(1, 0, 0, -1, 39.7752, 47.4105)"/>
</svg>
