<?xml version="1.0" encoding="UTF-8"?>
<svg xmlns="http://www.w3.org/2000/svg" xmlns:xlink="http://www.w3.org/1999/xlink" width="150pt" height="150pt" viewBox="0 0 150 150">
<path fill="none" stroke-width="0.869" stroke-linecap="round" stroke-linejoin="round" stroke="rgb(0%, 0%, 0%)" stroke-opacity="1" stroke-miterlimit="10" d="M 0.00138125 0.00051875 C -6.604087 -18.5112 -6.525962 -30.894013 17.520913 -22.694794 C 37.884194 -16.581513 50.938881 -16.460419 70.489663 -22.120575 C 95.032631 -30.5737 97.548256 -21.300263 90.020913 0.00051875 " transform="matrix(1, 0, 0, -1, 29.9869, 93.9888)"/>
<path fill="none" stroke-width="0.869" stroke-linecap="round" stroke-linejoin="round" stroke="rgb(0%, 0%, 0%)" stroke-opacity="1" stroke-miterlimit="10" d="M -0.0008875 0.00045625 C -1.641512 -4.94095 -3.504794 -10.870638 -3.5712 -16.120638 C -3.7587 -21.429231 1.788175 -21.030794 5.628019 -20.374544 C 23.131925 -16.081575 39.717863 -11.956575 57.846769 -16.2222 C 63.893644 -17.3472 70.342862 -19.558138 76.358487 -20.480013 C 79.088956 -20.808138 82.999112 -21.280794 84.381925 -18.554231 C 86.003019 -14.206575 82.776456 -4.952669 81.167081 0.0395187 " transform="matrix(1, 0, 0, -1, 34.3212, 92.8403)"/>
<path fill="none" stroke-width="0.869" stroke-linecap="round" stroke-linejoin="round" stroke="rgb(0%, 0%, 0%)" stroke-opacity="1" stroke-miterlimit="10" d="M 0.0002125 0.000675 C -1.460725 -3.561825 -3.120881 -7.831356 -3.179475 -11.616512 C -3.347444 -15.444637 1.593963 -15.155575 5.015838 -14.682919 C 20.605681 -11.589169 35.379119 -8.616512 51.527556 -11.690731 C 56.914275 -12.499325 62.660369 -14.093075 68.02365 -14.757137 C 70.453338 -14.995419 73.937713 -15.335262 75.164275 -13.370419 C 76.609588 -10.237606 73.734588 -3.569637 72.3049 0.0280188 " transform="matrix(1, 0, 0, -1, 38.7576, 92.8288)"/>
<path fill="none" stroke-width="0.869" stroke-linecap="round" stroke-linejoin="round" stroke="rgb(0%, 0%, 0%)" stroke-opacity="1" stroke-miterlimit="10" d="M 0 0.00055625 L 0 25.301337 C 0 25.301337 13.296875 26.305244 25.234375 20.145087 C 28.535156 18.473212 31.75 16.219306 34.539062 13.254462 C 48.527344 -1.651788 50 -36.167413 50 -36.167413 L 45.003906 -37.327569 C 45.003906 -37.327569 43.464844 -36.835381 40.496094 -36.143975 C 33.824219 -34.581475 19.878906 -32.061944 0 -32.061944 L 0 -20.370538 " transform="matrix(1, 0, 0, -1, 75, 56.6529)"/>
<path fill="none" stroke-width="0.869" stroke-linecap="round" stroke-linejoin="round" stroke="rgb(0%, 0%, 0%)" stroke-opacity="1" stroke-miterlimit="10" d="M 0 0.00055625 L 0 25.301337 C 0 25.301337 -13.230469 26.305244 -25.144531 20.2154 C -25.144531 20.191962 -25.167969 20.168525 -25.191406 20.191962 C -28.515625 18.49665 -31.75 16.242744 -34.539062 13.254462 C -48.527344 -1.651788 -50 -36.167413 -50 -36.167413 L -45.003906 -37.327569 C -45.003906 -37.327569 -43.53125 -36.858819 -40.675781 -36.19085 C -34.070312 -34.62835 -20.058594 -32.061944 0 -32.061944 L 0 -20.370538 " transform="matrix(1, 0, 0, -1, 75, 56.6529)"/>
<path fill="none" stroke-width="0.869" stroke-linecap="round" stroke-linejoin="round" stroke="rgb(0%, 0%, 0%)" stroke-opacity="1" stroke-miterlimit="10" d="M -0.0001125 0.00030625 C -0.0001125 0.00030625 -14.699331 -9.530944 -17.851675 -32.550475 C -20.593863 -52.538756 -20.504019 -57.991881 -20.504019 -57.991881 " transform="matrix(1, 0, 0, -1, 50.4923, 35.9964)"/>
<path fill="none" stroke-width="0.869" stroke-linecap="round" stroke-linejoin="round" stroke="rgb(0%, 0%, 0%)" stroke-opacity="1" stroke-miterlimit="10" d="M -0.0011 0.00030625 C -0.0011 0.00030625 14.627806 -8.702819 17.854369 -32.550475 C 20.557494 -52.542663 20.506712 -57.991881 20.506712 -57.991881 " transform="matrix(1, 0, 0, -1, 99.5011, 35.9964)"/>
<path fill="none" stroke-width="0.869" stroke-linecap="round" stroke-linejoin="round" stroke="rgb(0%, 0%, 0%)" stroke-opacity="1" stroke-miterlimit="10" d="M -0.0006375 0.0011625 C -0.19595 -0.862119 0.921238 -1.8504 2.495456 -2.201963 C 4.065769 -2.553525 5.495456 -2.139463 5.686863 -1.276181 C 5.882175 -0.4129 4.764988 0.575381 3.194675 0.926944 C 1.624363 1.278506 0.194675 0.864444 -0.0006375 0.0011625 Z M -0.0006375 0.0011625 " transform="matrix(1, 0, 0, -1, 90.1647, 38.7121)"/>
<path fill="none" stroke-width="0.869" stroke-linecap="round" stroke-linejoin="round" stroke="rgb(0%, 0%, 0%)" stroke-opacity="1" stroke-miterlimit="10" d="M -0.00016875 0.00035 C 0.195144 -0.866838 -0.92595 -1.859025 -2.504075 -2.210588 C -4.0822 -2.566056 -5.5197 -2.148088 -5.715013 -1.2809 C -5.906419 -0.413713 -4.785325 0.578475 -3.2072 0.930037 C -1.629075 1.285506 -0.195481 0.867537 -0.00016875 0.00035 Z M -0.00016875 0.00035 " transform="matrix(1, 0, 0, -1, 59.3947, 38.7191)"/>
<path fill="none" stroke-width="0.869" stroke-linecap="round" stroke-linejoin="round" stroke="rgb(0%, 0%, 0%)" stroke-opacity="1" stroke-miterlimit="10" d="M -0.0007875 -0.0004375 L -30.094538 -0.0004375 C -31.856256 -0.0004375 -33.282038 1.425344 -33.282038 3.187062 L -33.282038 17.187062 C -33.282038 18.948781 -31.856256 20.374562 -30.094538 20.374562 L -0.0007875 20.374562 C 1.760931 20.374562 3.186712 18.948781 3.186712 17.187062 L 3.186712 3.187062 C 3.186712 1.425344 1.760931 -0.0004375 -0.0007875 -0.0004375 Z M -0.0007875 -0.0004375 " transform="matrix(1, 0, 0, -1, 89.8211, 77.023)"/>
<path fill="none" stroke-width="0.869" stroke-linecap="round" stroke-linejoin="round" stroke="rgb(0%, 0%, 0%)" stroke-opacity="1" stroke-miterlimit="10" d="M 0.00051875 0.00083125 C 0.00051875 0.00083125 0.70755 4.110206 5.996612 4.110206 C 11.289581 4.110206 12.160675 -0.1437 12.160675 -0.1437 " transform="matrix(1, 0, 0, -1, 68.9487, 31.2938)"/>
</svg>
