<?xml version="1.0" encoding="UTF-8"?>
<svg xmlns="http://www.w3.org/2000/svg" xmlns:xlink="http://www.w3.org/1999/xlink" width="150pt" height="150pt" viewBox="0 0 150 150">
<path fill="none" stroke-width="0.869" stroke-linecap="round" stroke-linejoin="round" stroke="rgb(0%, 0%, 0%)" stroke-opacity="1" stroke-miterlimit="10" d="M 125 40.410156 L 25 40.410156 L 25 69.964844 L 125 69.964844 Z M 125 40.410156 " transform="matrix(1, 0, 0, -1, 0, 150)"/>
<path fill="none" stroke-width="0.869" stroke-linecap="round" stroke-linejoin="round" stroke="rgb(0%, 0%, 0%)" stroke-opacity="1" stroke-miterlimit="10" d="M -0.00013125 0.0013375 L -0.00013125 9.837275 " transform="matrix(1, 0, 0, -1, 41.9806, 80.0404)"/>
<path fill="none" stroke-width="0.869" stroke-linecap="round" stroke-linejoin="round" stroke="rgb(0%, 0%, 0%)" stroke-opacity="1" stroke-miterlimit="10" d="M 0.00015625 0.0013375 L 0.00015625 9.837275 " transform="matrix(1, 0, 0, -1, 108.5975, 80.0404)"/>
<path fill="none" stroke-width="0.869" stroke-linecap="round" stroke-linejoin="round" stroke="rgb(0%, 0%, 0%)" stroke-opacity="1" stroke-miterlimit="10" d="M 0 0.00014375 L 16.972656 9.828269 L 83.601562 9.828269 L 100 0.00014375 " transform="matrix(1, 0, 0, -1, 25, 80.0353)"/>
<path fill="none" stroke-width="0.869" stroke-linecap="round" stroke-linejoin="round" stroke="rgb(0%, 0%, 0%)" stroke-opacity="1" stroke-miterlimit="10" d="M -0.00086875 0.00020625 L 10.460069 -20.644325 L 6.827256 -20.644325 C 4.788194 -20.644325 2.905381 -19.5037 1.971788 -17.706825 L -3.321181 -7.468544 C -3.993056 -6.1912 -4.063369 -4.667763 -3.543837 -3.320106 L -2.231337 0.1213 " transform="matrix(1, 0, 0, -1, 31.5204, 49.5588)"/>
<path fill="none" stroke-width="0.869" stroke-linecap="round" stroke-linejoin="round" stroke="rgb(0%, 0%, 0%)" stroke-opacity="1" stroke-miterlimit="10" d="M -0.0014375 0.00020625 L -10.442844 -20.644325 L -6.813938 -20.644325 C -4.770969 -20.644325 -2.888156 -19.5037 -1.954563 -17.706825 L 3.338406 -7.468544 C 3.994656 -6.1912 4.080594 -4.667763 3.561062 -3.320106 L 2.143094 0.347862 " transform="matrix(1, 0, 0, -1, 119.0405, 49.5588)"/>
<path fill="none" stroke-width="0.869" stroke-linecap="round" stroke-linejoin="round" stroke="rgb(0%, 0%, 0%)" stroke-opacity="1" stroke-miterlimit="10" d="M 0.00119375 0.00094375 L -1.381619 3.625944 L -93.483181 3.625944 L -94.865994 0.00094375 C -95.819119 -2.506869 -94.518338 -5.530306 -92.479275 -5.530306 L -2.385525 -5.530306 C -0.346463 -5.530306 0.954319 -2.506869 0.00119375 0.00094375 Z M 0.00119375 0.00094375 " transform="matrix(1, 0, 0, -1, 122.4324, 44.0361)"/>
</svg>
