<?xml version="1.0" encoding="UTF-8"?>
<svg xmlns="http://www.w3.org/2000/svg" xmlns:xlink="http://www.w3.org/1999/xlink" width="150pt" height="150pt" viewBox="0 0 150 150">
<path fill="none" stroke-width="0.869" stroke-linecap="round" stroke-linejoin="round" stroke="rgb(0%, 0%, 0%)" stroke-opacity="1" stroke-miterlimit="10" d="M -0.00035625 0.0011125 C -0.00035625 0.0011125 3.234019 2.657363 7.25355 0.0011125 " transform="matrix(1, 0, 0, -1, 78.7777, 96.7433)"/>
<path fill="none" stroke-width="0.869" stroke-linecap="round" stroke-linejoin="round" stroke="rgb(0%, 0%, 0%)" stroke-opacity="1" stroke-miterlimit="10" d="M -0.00049375 0.00009375 C -0.00049375 0.16025 -0.1294 0.293062 -0.293463 0.293062 C -0.453619 0.293062 -0.582525 0.16025 -0.582525 0.00009375 " transform="matrix(1, 0, 0, -1, 82.6919, 91.9415)"/>
<path fill="none" stroke-width="0.869" stroke-linecap="round" stroke-linejoin="round" stroke="rgb(0%, 0%, 0%)" stroke-opacity="1" stroke-miterlimit="10" d="M 0.0012375 -0.001725 L 0.0012375 1.810775 C 0.0012375 3.080306 -1.018294 4.119369 -2.311262 4.119369 L -3.061262 4.119369 C -4.330794 4.119369 -5.369856 3.080306 -5.369856 1.810775 L -5.369856 0.0412437 " transform="matrix(1, 0, 0, -1, 85.0847, 96.2014)"/>
<path fill="none" stroke-width="0.869" stroke-linecap="round" stroke-linejoin="round" stroke="rgb(0%, 0%, 0%)" stroke-opacity="1" stroke-miterlimit="10" d="M -0.00034375 0.0011125 C -0.00034375 0.0011125 3.234031 2.657363 7.253563 0.0011125 " transform="matrix(1, 0, 0, -1, 88.098, 96.7433)"/>
<path fill="none" stroke-width="0.869" stroke-linecap="round" stroke-linejoin="round" stroke="rgb(0%, 0%, 0%)" stroke-opacity="1" stroke-miterlimit="10" d="M -0.000775 0.00009375 C -0.000775 0.16025 -0.129681 0.293062 -0.293744 0.293062 C -0.4539 0.293062 -0.582806 0.16025 -0.582806 0.00009375 " transform="matrix(1, 0, 0, -1, 92.0164, 91.9415)"/>
<path fill="none" stroke-width="0.869" stroke-linecap="round" stroke-linejoin="round" stroke="rgb(0%, 0%, 0%)" stroke-opacity="1" stroke-miterlimit="10" d="M 0.00115 -0.001725 L 0.00115 1.810775 C 0.00115 3.080306 -1.018381 4.119369 -2.31135 4.119369 L -3.06135 4.119369 C -4.330881 4.119369 -5.369944 3.080306 -5.369944 1.810775 L -5.369944 0.0412437 " transform="matrix(1, 0, 0, -1, 94.4051, 96.2014)"/>
<path fill="none" stroke-width="0.869" stroke-linecap="round" stroke-linejoin="round" stroke="rgb(0%, 0%, 0%)" stroke-opacity="1" stroke-miterlimit="10" d="M -0.0003875 -0.0008625 L -2.47695 -0.0008625 L -2.47695 3.010856 L -4.457419 3.010856 L -4.457419 -0.0008625 L -6.816794 -0.0008625 " transform="matrix(1, 0, 0, -1, 103.7582, 96.4757)"/>
<path fill="none" stroke-width="0.869" stroke-linecap="round" stroke-linejoin="round" stroke="rgb(0%, 0%, 0%)" stroke-opacity="1" stroke-miterlimit="10" d="M 0.0001625 -0.0008625 L -2.4764 -0.0008625 L -2.4764 3.010856 L -4.456869 3.010856 L -4.456869 -0.0008625 L -6.816244 -0.0008625 " transform="matrix(1, 0, 0, -1, 77.2889, 96.4757)"/>
<path fill="none" stroke-width="0.869" stroke-linecap="round" stroke-linejoin="round" stroke="rgb(0%, 0%, 0%)" stroke-opacity="1" stroke-miterlimit="10" d="M -0.00055625 -0.00175 L -0.254462 -0.00175 C -0.254462 -1.103313 -1.145087 -1.993938 -2.250556 -1.993938 C -3.352119 -1.993938 -4.242744 -1.103313 -4.242744 -0.00175 L -4.49665 -0.00175 C -6.80915 -0.00175 -8.680244 -1.872844 -8.680244 -4.181438 L -8.680244 -6.060344 L -5.660712 -6.060344 L -5.660712 -12.00175 L 1.163506 -12.00175 L 1.163506 -6.060344 L 4.183038 -6.060344 L 4.183038 -4.181438 C 4.183038 -1.872844 2.311944 -0.00175 -0.00055625 -0.00175 Z M -0.00055625 -0.00175 " transform="matrix(1, 0, 0, -1, 76.1529, 81.467)"/>
<path fill="none" stroke-width="0.869" stroke-linecap="round" stroke-linejoin="round" stroke="rgb(0%, 0%, 0%)" stroke-opacity="1" stroke-miterlimit="10" d="M -0.0016125 0.00095625 L -0.0016125 2.305644 " transform="matrix(1, 0, 0, -1, 70.4938, 87.5283)"/>
<path fill="none" stroke-width="0.869" stroke-linecap="round" stroke-linejoin="round" stroke="rgb(0%, 0%, 0%)" stroke-opacity="1" stroke-miterlimit="10" d="M 0.00190625 0.00095625 L 0.00190625 2.305644 " transform="matrix(1, 0, 0, -1, 77.3145, 87.5283)"/>
<path fill="none" stroke-width="0.869" stroke-linecap="round" stroke-linejoin="round" stroke="rgb(0%, 0%, 0%)" stroke-opacity="1" stroke-miterlimit="10" d="M -0.0010125 -0.00175 L -0.254919 -0.00175 C -0.254919 -1.103313 -1.145544 -1.993938 -2.247106 -1.993938 C -3.352575 -1.993938 -4.2432 -1.103313 -4.2432 -0.00175 L -4.497106 -0.00175 C -6.809606 -0.00175 -8.6807 -1.872844 -8.6807 -4.181438 L -8.6807 -6.060344 L -5.657262 -6.060344 L -5.657262 -12.00175 L 1.16305 -12.00175 L 1.16305 -6.060344 L 4.182581 -6.060344 L 4.182581 -4.181438 C 4.182581 -1.872844 2.311488 -0.00175 -0.0010125 -0.00175 Z M -0.0010125 -0.00175 " transform="matrix(1, 0, 0, -1, 102.6807, 81.467)"/>
<path fill="none" stroke-width="0.869" stroke-linecap="round" stroke-linejoin="round" stroke="rgb(0%, 0%, 0%)" stroke-opacity="1" stroke-miterlimit="10" d="M 0.0017375 0.00095625 L 0.0017375 2.305644 " transform="matrix(1, 0, 0, -1, 97.0217, 87.5283)"/>
<path fill="none" stroke-width="0.869" stroke-linecap="round" stroke-linejoin="round" stroke="rgb(0%, 0%, 0%)" stroke-opacity="1" stroke-miterlimit="10" d="M 0.00135 0.00095625 L 0.00135 2.305644 " transform="matrix(1, 0, 0, -1, 103.8424, 87.5283)"/>
<path fill="none" stroke-width="0.869" stroke-linecap="round" stroke-linejoin="round" stroke="rgb(0%, 0%, 0%)" stroke-opacity="1" stroke-miterlimit="10" d="M 109.253906 52.628906 L 64.992188 52.628906 L 64.992188 72.453125 L 109.253906 72.453125 Z M 109.253906 52.628906 " transform="matrix(1, 0, 0, -1, 0, 150)"/>
<path fill="none" stroke-width="0.869" stroke-linecap="round" stroke-linejoin="round" stroke="rgb(0%, 0%, 0%)" stroke-opacity="1" stroke-miterlimit="10" d="M -0.00110625 0.00084375 L 11.678581 0.00084375 " transform="matrix(1, 0, 0, -1, 46.6222, 92.5985)"/>
<path fill="none" stroke-width="0.869" stroke-linecap="round" stroke-linejoin="round" stroke="rgb(0%, 0%, 0%)" stroke-opacity="1" stroke-miterlimit="10" d="M 46.621094 73.269531 L 58.300781 73.269531 L 58.300781 43.769531 L 46.621094 43.769531 Z M 46.621094 73.269531 " transform="matrix(1, 0, 0, -1, 0, 150)"/>
<path fill="none" stroke-width="0.869" stroke-linecap="round" stroke-linejoin="round" stroke="rgb(0%, 0%, 0%)" stroke-opacity="1" stroke-miterlimit="10" d="M 60.378906 75.351562 L 44.542969 75.351562 L 44.542969 43.769531 L 60.378906 43.769531 Z M 60.378906 75.351562 " transform="matrix(1, 0, 0, -1, 0, 150)"/>
<path fill="none" stroke-width="0.869" stroke-linecap="round" stroke-linejoin="round" stroke="rgb(0%, 0%, 0%)" stroke-opacity="1" stroke-miterlimit="10" d="M 0 -0.00046875 L 100 -0.00046875 " transform="matrix(1, 0, 0, -1, 25, 106.23)"/>
<path fill="none" stroke-width="0.869" stroke-linecap="round" stroke-linejoin="round" stroke="rgb(0%, 0%, 0%)" stroke-opacity="1" stroke-miterlimit="10" d="M 0.00075625 0.0002625 L 0.00075625 -40.956769 " transform="matrix(1, 0, 0, -1, 36.4719, 65.2737)"/>
<path fill="none" stroke-width="0.869" stroke-linecap="round" stroke-linejoin="round" stroke="rgb(0%, 0%, 0%)" stroke-opacity="1" stroke-miterlimit="10" d="M -0.001825 -0.00046875 L -0.001825 40.956562 " transform="matrix(1, 0, 0, -1, 114.2362, 106.23)"/>
<path fill="none" stroke-width="0.869" stroke-linecap="round" stroke-linejoin="round" stroke="rgb(0%, 0%, 0%)" stroke-opacity="1" stroke-miterlimit="10" d="M 116.941406 84.726562 L 33.769531 84.726562 L 33.769531 43.769531 L 116.941406 43.769531 Z M 116.941406 84.726562 " transform="matrix(1, 0, 0, -1, 0, 150)"/>
<path fill="none" stroke-width="0.869" stroke-linecap="round" stroke-linejoin="round" stroke="rgb(0%, 0%, 0%)" stroke-opacity="1" stroke-miterlimit="10" d="M 122.957031 84.726562 L 27.042969 84.726562 L 27.042969 90.289062 L 122.957031 90.289062 Z M 122.957031 84.726562 " transform="matrix(1, 0, 0, -1, 0, 150)"/>
<path fill="none" stroke-width="0.869" stroke-linecap="round" stroke-linejoin="round" stroke="rgb(0%, 0%, 0%)" stroke-opacity="1" stroke-miterlimit="10" d="M -0.00083125 0.0008625 L 9.428856 15.942269 L 87.190575 15.942269 L 95.913231 0.0008625 Z M -0.00083125 0.0008625 " transform="matrix(1, 0, 0, -1, 27.0438, 59.7118)"/>
</svg>
