<?xml version="1.0" encoding="UTF-8"?>
<svg xmlns="http://www.w3.org/2000/svg" xmlns:xlink="http://www.w3.org/1999/xlink" width="150pt" height="150pt" viewBox="0 0 150 150">
<path fill="none" stroke-width="0.869" stroke-linecap="round" stroke-linejoin="round" stroke="rgb(0%, 0%, 0%)" stroke-opacity="1" stroke-miterlimit="10" d="M -0.000975 -0.0015625 C -0.000975 -0.0015625 6.409181 -1.470313 8.690431 -9.232031 C 10.479494 -15.310156 13.612306 -37.583594 14.885744 -46.950781 C 15.186525 -49.169531 13.463869 -51.142188 11.221681 -51.142188 L 8.784181 -51.142188 C 8.784181 -51.142188 3.881838 -51.24375 2.604494 -49.782813 " transform="matrix(1, 0, 0, -1, 110.0791, 50.1625)"/>
<path fill="none" stroke-width="0.869" stroke-linecap="round" stroke-linejoin="round" stroke="rgb(0%, 0%, 0%)" stroke-opacity="1" stroke-miterlimit="10" d="M -0.000475 0.0015625 C -0.000475 0.0015625 4.214369 -8.205469 2.70265 -10.279687 C 1.190931 -12.357812 -10.965319 -15.1625 -14.883287 -14.717187 " transform="matrix(1, 0, 0, -1, 108.0786, 39.275)"/>
<path fill="none" stroke-width="0.869" stroke-linecap="round" stroke-linejoin="round" stroke="rgb(0%, 0%, 0%)" stroke-opacity="1" stroke-miterlimit="10" d="M -0.00008125 0.0002875 C -0.00008125 0.0002875 2.015544 4.105756 10.527263 8.4456 C 19.042888 12.785444 17.929606 14.523725 17.929606 15.457319 C 17.929606 17.168256 10.621013 18.781537 1.636638 18.781537 C -7.347737 18.781537 -15.195394 17.168256 -15.195394 14.97685 C -15.195394 11.781537 -9.414144 9.402631 -4.589925 7.398725 C 0.230388 5.390912 1.773356 2.429975 1.773356 2.429975 " transform="matrix(1, 0, 0, -1, 90.3243, 55.1956)"/>
<path fill="none" stroke-width="0.869" stroke-linecap="round" stroke-linejoin="round" stroke="rgb(0%, 0%, 0%)" stroke-opacity="1" stroke-miterlimit="10" d="M -0.00009375 -0.00049375 C -0.00009375 -0.00049375 -3.3165 -6.652838 -2.726656 -8.996588 C -2.140719 -11.336431 4.331937 -13.871588 13.878812 -14.246588 " transform="matrix(1, 0, 0, -1, 75.254, 39.7456)"/>
<path fill="none" stroke-width="0.869" stroke-linecap="round" stroke-linejoin="round" stroke="rgb(0%, 0%, 0%)" stroke-opacity="1" stroke-miterlimit="10" d="M -0.000425 -0.000675 C -0.000425 -0.000675 -6.648863 6.487606 -8.418394 8.214169 C -10.187925 9.940731 -9.656675 10.499325 -4.207456 11.300106 " transform="matrix(1, 0, 0, -1, 90.7348, 51.0462)"/>
<path fill="none" stroke-width="0.869" stroke-linecap="round" stroke-linejoin="round" stroke="rgb(0%, 0%, 0%)" stroke-opacity="1" stroke-miterlimit="10" d="M 0.00099375 -0.000675 C 0.00099375 -0.000675 6.649431 6.487606 8.415056 8.214169 C 10.184588 9.940731 9.653338 10.499325 4.208025 11.300106 " transform="matrix(1, 0, 0, -1, 94.1201, 51.0462)"/>
<path fill="none" stroke-width="0.869" stroke-linecap="round" stroke-linejoin="round" stroke="rgb(0%, 0%, 0%)" stroke-opacity="1" stroke-miterlimit="10" d="M -0.00080625 -0.0016375 C -0.00080625 -0.0016375 5.022631 1.224925 10.737475 -0.0016375 " transform="matrix(1, 0, 0, -1, 87.0594, 47.4593)"/>
<path fill="none" stroke-width="0.869" stroke-linecap="round" stroke-linejoin="round" stroke="rgb(0%, 0%, 0%)" stroke-opacity="1" stroke-miterlimit="10" d="M 0.0014125 -0.00105 L 0.0014125 -15.708081 " transform="matrix(1, 0, 0, -1, 86.1314, 51.8427)"/>
<path fill="none" stroke-width="0.869" stroke-linecap="round" stroke-linejoin="round" stroke="rgb(0%, 0%, 0%)" stroke-opacity="1" stroke-miterlimit="10" d="M 0.0008375 -0.00105 L 0.0008375 -15.708081 " transform="matrix(1, 0, 0, -1, 97.5851, 51.8427)"/>
<path fill="none" stroke-width="0.869" stroke-linecap="round" stroke-linejoin="round" stroke="rgb(0%, 0%, 0%)" stroke-opacity="1" stroke-miterlimit="10" d="M 0.0000875 0.0002875 C 1.843837 2.437787 4.378994 4.222944 7.234462 5.160444 " transform="matrix(1, 0, 0, -1, 65.8671, 55.1956)"/>
<path fill="none" stroke-width="0.869" stroke-linecap="round" stroke-linejoin="round" stroke="rgb(0%, 0%, 0%)" stroke-opacity="1" stroke-miterlimit="10" d="M 0.00129375 0.000125 L 0.00129375 -36.738156 C 0.00129375 -38.992063 -0.944019 -40.816281 -3.197925 -40.816281 L -38.104175 -40.816281 " transform="matrix(1, 0, 0, -1, 112.6823, 62.2345)"/>
<path fill="none" stroke-width="0.869" stroke-linecap="round" stroke-linejoin="round" stroke="rgb(0%, 0%, 0%)" stroke-opacity="1" stroke-miterlimit="10" d="M 0.00070625 -0.001375 L 0.00070625 -4.399812 C 0.00070625 -5.270906 0.707738 -5.977937 1.578831 -5.977937 L 7.856175 -5.977937 C 8.727269 -5.977937 9.4343 -5.270906 9.4343 -4.399812 L 9.4343 -0.349031 " transform="matrix(1, 0, 0, -1, 113.5657, 100.5455)"/>
<path fill="none" stroke-width="0.869" stroke-linecap="round" stroke-linejoin="round" stroke="rgb(0%, 0%, 0%)" stroke-opacity="1" stroke-miterlimit="10" d="M -0.00121875 0.0017875 L -19.794188 0.0017875 C -19.794188 0.0017875 -20.618406 -6.756025 -25.001219 -10.95915 L -25.001219 -17.166181 L 5.205812 -17.166181 L 5.205812 -10.95915 C 0.823 -6.756025 -0.00121875 0.0017875 -0.00121875 0.0017875 Z M -0.00121875 0.0017875 " transform="matrix(1, 0, 0, -1, 101.6145, 85.8846)"/>
<path fill="none" stroke-width="0.869" stroke-linecap="round" stroke-linejoin="round" stroke="rgb(0%, 0%, 0%)" stroke-opacity="1" stroke-miterlimit="10" d="M -0.000975 0.00071875 L -0.000975 -3.6985 C -0.000975 -4.550062 -0.692381 -5.241469 -1.543944 -5.241469 L -35.879881 -5.241469 " transform="matrix(1, 0, 0, -1, 110.0791, 103.0515)"/>
<path fill="none" stroke-width="0.869" stroke-linecap="round" stroke-linejoin="round" stroke="rgb(0%, 0%, 0%)" stroke-opacity="1" stroke-miterlimit="10" d="M -0.00115625 0.0017875 L -2.446469 31.677569 C -3.360531 43.497881 -12.946469 49.236163 -24.801937 49.236163 L -24.825375 49.236163 C -36.676937 49.232256 -46.270687 43.493975 -47.18475 31.677569 L -49.630062 0.0017875 C -49.989437 -4.662275 -46.305844 -8.642744 -41.630062 -8.642744 L -7.99725 -8.642744 C -3.325375 -8.642744 0.358219 -4.662275 -0.00115625 0.0017875 Z M -0.00115625 0.0017875 " transform="matrix(1, 0, 0, -1, 74.6535, 104.9471)"/>
<path fill="none" stroke-width="0.869" stroke-linecap="round" stroke-linejoin="round" stroke="rgb(0%, 0%, 0%)" stroke-opacity="1" stroke-miterlimit="10" d="M -0.001575 -0.0009125 C 0.57655 4.338931 2.557019 7.768619 5.88905 10.198306 C 9.338269 12.713931 14.088269 14.042056 19.623425 14.042056 L 19.650769 14.042056 C 25.185925 14.042056 29.935925 12.713931 33.381237 10.202213 C 36.685925 7.792056 38.654675 4.401431 39.252331 0.116275 " transform="matrix(1, 0, 0, -1, 30.2047, 72.3819)"/>
<path fill="none" stroke-width="0.869" stroke-linecap="round" stroke-linejoin="round" stroke="rgb(0%, 0%, 0%)" stroke-opacity="1" stroke-miterlimit="10" d="M -0.001175 -0.00155 L 0.366013 4.756262 " transform="matrix(1, 0, 0, -1, 29.5793, 80.0922)"/>
<path fill="none" stroke-width="0.869" stroke-linecap="round" stroke-linejoin="round" stroke="rgb(0%, 0%, 0%)" stroke-opacity="1" stroke-miterlimit="10" d="M 0.00086875 0.00179375 L 0.297744 -3.841956 " transform="matrix(1, 0, 0, -1, 69.6671, 74.5057)"/>
<path fill="none" stroke-width="0.869" stroke-linecap="round" stroke-linejoin="round" stroke="rgb(0%, 0%, 0%)" stroke-opacity="1" stroke-miterlimit="10" d="M 0.00111875 0.0007375 L 0.688619 0.621831 C 1.094869 0.992925 1.633931 1.188237 2.184713 1.168706 L 6.719869 1.020269 C 7.868306 0.981206 8.774556 0.0398 8.774556 -1.104731 L 8.774556 -5.706294 " transform="matrix(1, 0, 0, -1, 57.3856, 55.1648)"/>
<path fill="none" stroke-width="0.869" stroke-linecap="round" stroke-linejoin="round" stroke="rgb(0%, 0%, 0%)" stroke-opacity="1" stroke-miterlimit="10" d="M 0.00065 0.00019375 L -0.0071625 0.00019375 C -7.327475 0.00019375 -7.7181 -9.550588 -7.7181 -9.550588 L -4.261069 -8.906056 L -3.804037 -5.976369 C -3.597006 -4.640431 -2.444662 -3.656056 -1.0931 -3.656056 L 1.086588 -3.656056 C 2.43815 -3.656056 3.586588 -4.640431 3.797525 -5.976369 L 4.254556 -8.906056 L 7.711588 -9.550588 C 7.711588 -9.550588 7.320963 0.00019375 0.00065 0.00019375 Z M 0.00065 0.00019375 " transform="matrix(1, 0, 0, -1, 49.8431, 47.0666)"/>
<path fill="none" stroke-width="0.869" stroke-linecap="round" stroke-linejoin="round" stroke="rgb(0%, 0%, 0%)" stroke-opacity="1" stroke-miterlimit="10" d="M 0.00086875 0.0007375 L -0.686631 0.621831 C -1.096788 0.992925 -1.631944 1.188237 -2.182725 1.168706 L -6.721788 1.020269 C -7.866319 0.981206 -8.776475 0.0398 -8.776475 -1.104731 L -8.776475 -5.706294 " transform="matrix(1, 0, 0, -1, 42.2921, 55.1648)"/>
<path fill="none" stroke-width="0.869" stroke-linecap="round" stroke-linejoin="round" stroke="rgb(0%, 0%, 0%)" stroke-opacity="1" stroke-miterlimit="10" d="M 0.0015875 -0.00088125 L -3.697631 3.698337 C -4.123413 4.124119 -4.814819 4.124119 -5.236694 3.698337 L -8.935913 -0.00088125 C -9.361694 -0.426663 -9.361694 -1.114163 -8.935913 -1.539944 L -5.236694 -5.239163 C -4.814819 -5.664944 -4.123413 -5.664944 -3.697631 -5.239163 L 0.0015875 -1.539944 C 0.423462 -1.114163 0.423462 -0.426663 0.0015875 -0.00088125 Z M 0.0015875 -0.00088125 " transform="matrix(1, 0, 0, -1, 54.3031, 69.2999)"/>
<path fill="none" stroke-width="0.869" stroke-linecap="round" stroke-linejoin="round" stroke="rgb(0%, 0%, 0%)" stroke-opacity="1" stroke-miterlimit="10" d="M -0.00015625 0.0003625 L -26.375156 0.0003625 C -29.222813 0.0003625 -31.531406 -2.308231 -31.531406 -5.155887 L -31.531406 -20.956669 C -31.531406 -23.804325 -29.222813 -26.112919 -26.375156 -26.112919 L -0.00015625 -26.112919 C 2.8475 -26.112919 5.156094 -23.804325 5.156094 -20.956669 L 5.156094 -5.155887 C 5.156094 -2.308231 2.8475 0.0003625 -0.00015625 0.0003625 Z M -0.00015625 0.0003625 " transform="matrix(1, 0, 0, -1, 62.465, 81.7113)"/>
<path fill="none" stroke-width="0.869" stroke-linecap="round" stroke-linejoin="round" stroke="rgb(0%, 0%, 0%)" stroke-opacity="1" stroke-miterlimit="10" d="M 67.621094 59.863281 L 30.933594 59.863281 L 30.933594 61.96875 L 67.621094 61.96875 Z M 67.621094 59.863281 " transform="matrix(1, 0, 0, -1, 0, 150)"/>
<path fill="none" stroke-width="0.869" stroke-linecap="round" stroke-linejoin="round" stroke="rgb(0%, 0%, 0%)" stroke-opacity="1" stroke-miterlimit="10" d="M -0.0006125 -0.00005 L -1.106081 -0.00005 C -1.383425 -0.00005 -1.606081 -0.222706 -1.606081 -0.50005 L -1.606081 -1.605519 C -1.606081 -1.882863 -1.383425 -2.105519 -1.106081 -2.105519 L -0.0006125 -2.105519 C 0.276731 -2.105519 0.499388 -1.882863 0.499388 -1.605519 L 0.499388 -0.50005 C 0.499388 -0.222706 0.276731 -0.00005 -0.0006125 -0.00005 Z M -0.0006125 -0.00005 " transform="matrix(1, 0, 0, -1, 35.3678, 88.0312)"/>
<path fill="none" stroke-width="0.869" stroke-linecap="round" stroke-linejoin="round" stroke="rgb(0%, 0%, 0%)" stroke-opacity="1" stroke-miterlimit="10" d="M -0.0014 0.001375 C -0.399837 0.001375 -0.72015 0.321687 -0.72015 0.720125 L -0.72015 7.095125 C -0.72015 7.493562 -0.399837 7.817781 -0.0014 7.817781 C 0.397038 7.817781 0.721256 7.493562 0.721256 7.095125 L 0.721256 0.720125 C 0.721256 0.321687 0.397038 0.001375 -0.0014 0.001375 Z M -0.0014 0.001375 " transform="matrix(1, 0, 0, -1, 34.8139, 97.9545)"/>
<path fill="none" stroke-width="0.869" stroke-linecap="round" stroke-linejoin="round" stroke="rgb(0%, 0%, 0%)" stroke-opacity="1" stroke-miterlimit="10" d="M 0.00155625 0.0010625 C 0.118744 -1.514562 -0.385163 -2.963781 -1.420319 -4.080969 C -2.451569 -5.19425 -3.857819 -5.811437 -5.37735 -5.811437 L -39.010163 -5.811437 C -40.529694 -5.811437 -41.935944 -5.19425 -42.967194 -4.080969 C -44.00235 -2.963781 -44.506256 -1.514562 -44.389069 0.0010625 " transform="matrix(1, 0, 0, -1, 72.0336, 105.1495)"/>
</svg>
