<?xml version="1.0" encoding="UTF-8"?>
<svg xmlns="http://www.w3.org/2000/svg" xmlns:xlink="http://www.w3.org/1999/xlink" width="150pt" height="150pt" viewBox="0 0 150 150">
<path fill="none" stroke-width="0.869" stroke-linecap="round" stroke-linejoin="round" stroke="rgb(0%, 0%, 0%)" stroke-opacity="1" stroke-miterlimit="10" d="M 0.00024375 0.00165625 C -1.144288 -0.017875 -2.292725 -0.0335 -3.472413 -0.0335 C -16.187256 -0.0335 -27.097413 1.251656 -27.097413 1.251656 L -27.253663 40.056344 L -32.882569 36.251656 L -44.2771 50.532906 C -44.2771 50.532906 -33.351319 62.896187 -28.538819 68.614937 C -23.726319 74.31025 -13.445069 75.614937 -13.445069 75.614937 C -13.445069 75.614937 -10.890381 72.157906 -3.472413 72.157906 C 3.94165 72.157906 6.496337 75.614937 6.496337 75.614937 C 6.496337 75.614937 16.761962 74.31025 21.590087 68.614937 C 26.402587 62.896187 37.328369 50.532906 37.328369 50.532906 L 28.902587 39.986031 " transform="matrix(1, 0, 0, -1, 69.2771, 101.904)"/>
<path fill="none" stroke-width="0.869" stroke-linecap="round" stroke-linejoin="round" stroke="rgb(0%, 0%, 0%)" stroke-opacity="1" stroke-miterlimit="10" d="M -0.0006625 0.00093125 C -0.0006625 0.00093125 0.2259 -8.928756 9.964181 -8.928756 C 19.706369 -8.928756 19.929025 0.00093125 19.929025 0.00093125 " transform="matrix(1, 0, 0, -1, 55.8366, 26.2939)"/>
<path fill="none" stroke-width="0.869" stroke-linecap="round" stroke-linejoin="round" stroke="rgb(0%, 0%, 0%)" stroke-opacity="1" stroke-miterlimit="10" d="M -0.00071875 -0.00116875 C -0.00071875 -0.00116875 2.72975 -5.329294 2.72975 -13.223825 " transform="matrix(1, 0, 0, -1, 40.739, 33.2918)"/>
<path fill="none" stroke-width="0.869" stroke-linecap="round" stroke-linejoin="round" stroke="rgb(0%, 0%, 0%)" stroke-opacity="1" stroke-miterlimit="10" d="M -0.00021875 -0.00116875 C -0.00021875 -0.00116875 -2.730688 -5.329294 -2.730688 -13.223825 " transform="matrix(1, 0, 0, -1, 90.8635, 33.2918)"/>
<path fill="none" stroke-width="0.869" stroke-linecap="round" stroke-linejoin="round" stroke="rgb(0%, 0%, 0%)" stroke-opacity="1" stroke-miterlimit="10" d="M 0.001725 -0.0017625 L -0.802962 -6.997856 " transform="matrix(1, 0, 0, -1, 42.8264, 54.8498)"/>
<path fill="none" stroke-width="0.869" stroke-linecap="round" stroke-linejoin="round" stroke="rgb(0%, 0%, 0%)" stroke-opacity="1" stroke-miterlimit="10" d="M 0.00181875 0.00180625 L -0.224744 1.962744 " transform="matrix(1, 0, 0, -1, 89.0099, 56.8104)"/>
<path fill="none" stroke-width="0.869" stroke-linecap="round" stroke-linejoin="round" stroke="rgb(0%, 0%, 0%)" stroke-opacity="1" stroke-miterlimit="10" d="M 0.00145 0.00058125 C -9.674331 9.676362 -25.365737 9.676362 -35.037612 0.00058125 C -44.713394 -9.6752 -44.713394 -25.3627 -35.037612 -35.038481 C -25.365737 -44.714263 -9.674331 -44.714263 0.00145 -35.038481 C 9.677231 -25.3627 9.677231 -9.6752 0.00145 0.00058125 Z M 0.00145 0.00058125 " transform="matrix(1, 0, 0, -1, 99.3423, 63.0123)"/>
<path fill="none" stroke-width="0.869" stroke-linecap="round" stroke-linejoin="round" stroke="rgb(0%, 0%, 0%)" stroke-opacity="1" stroke-miterlimit="10" d="M -0.00071875 -0.0014875 C -7.719469 7.721169 -20.235094 7.721169 -27.95775 -0.0014875 C -35.6765 -7.720238 -35.6765 -20.235863 -27.95775 -27.958519 C -20.235094 -35.677269 -7.719469 -35.677269 -0.00071875 -27.958519 C 7.721937 -20.235863 7.721937 -7.720238 -0.00071875 -0.0014875 Z M -0.00071875 -0.0014875 " transform="matrix(1, 0, 0, -1, 95.8015, 66.5532)"/>
<path fill="none" stroke-width="0.869" stroke-linecap="round" stroke-linejoin="round" stroke="rgb(0%, 0%, 0%)" stroke-opacity="1" stroke-miterlimit="10" d="M 0.00175625 0.00098125 L -4.326369 2.536138 L -4.482619 -33.905269 " transform="matrix(1, 0, 0, -1, 93.9084, 64.8877)"/>
<path fill="none" stroke-width="0.869" stroke-linecap="round" stroke-linejoin="round" stroke="rgb(0%, 0%, 0%)" stroke-opacity="1" stroke-miterlimit="10" d="M -0.0013125 -0.000125 C -0.0013125 -0.000125 -2.431 -2.093875 -2.356781 -2.01575 L 5.565094 -9.937625 L 7.748688 -7.750125 L 9.936188 -5.562625 L 2.018219 2.355344 C 2.092438 2.429563 -0.0013125 -0.000125 -0.0013125 -0.000125 Z M -0.0013125 -0.000125 " transform="matrix(1, 0, 0, -1, 99.306, 98.0155)"/>
<path fill="none" stroke-width="0.869" stroke-linecap="round" stroke-linejoin="round" stroke="rgb(0%, 0%, 0%)" stroke-opacity="1" stroke-miterlimit="10" d="M -0.0007875 -0.00128125 C -0.809381 0.807312 -2.117975 0.807312 -2.926569 -0.00128125 L -6.856256 -3.930969 C -7.66485 -4.739563 -7.66485 -6.048156 -6.856256 -6.85675 L 5.58515 -19.302063 C 6.389837 -20.10675 7.694525 -20.114563 8.503119 -19.313781 C 9.444525 -18.380188 10.487494 -17.345031 10.487494 -17.345031 C 10.487494 -17.345031 11.526556 -16.298156 12.456244 -15.360656 C 13.257025 -14.552063 13.253119 -13.247375 12.448431 -12.442688 Z M -0.0007875 -0.00128125 " transform="matrix(1, 0, 0, -1, 111.9461, 103.7995)"/>
<path fill="none" stroke-width="0.869" stroke-linecap="round" stroke-linejoin="round" stroke="rgb(0%, 0%, 0%)" stroke-opacity="1" stroke-miterlimit="10" d="M -0.000025 -0.0017375 L -6.574244 -8.904081 " transform="matrix(1, 0, 0, -1, 85.1094, 82.3342)"/>
<path fill="none" stroke-width="0.869" stroke-linecap="round" stroke-linejoin="round" stroke="rgb(0%, 0%, 0%)" stroke-opacity="1" stroke-miterlimit="10" d="M -0.0015375 -0.0016125 L -14.294506 -19.3688 " transform="matrix(1, 0, 0, -1, 85.5406, 69.6312)"/>
</svg>
