<?xml version="1.0" encoding="UTF-8"?>
<svg xmlns="http://www.w3.org/2000/svg" xmlns:xlink="http://www.w3.org/1999/xlink" width="150pt" height="150pt" viewBox="0 0 150 150">
<path fill="none" stroke-width="0.869" stroke-linecap="round" stroke-linejoin="round" stroke="rgb(0%, 0%, 0%)" stroke-opacity="1" stroke-miterlimit="10" d="M -0.000025 -0.0011625 C -0.000025 -0.0011625 2.460912 0.264462 3.867162 2.549619 C 5.273412 4.834775 3.867162 7.998837 3.867162 7.998837 C 3.867162 7.998837 2.199194 6.151181 -0.000025 6.151181 C -0.000025 6.151181 2.199194 8.791806 0.968725 12.041806 C 0.968725 12.041806 -0.441431 10.283994 -2.988306 9.670712 C -5.539088 9.053525 -10.5469 8.526181 -13.535181 9.053525 C -16.523463 9.580869 -21.097681 7.139462 -21.183619 4.00665 C -21.183619 4.00665 -24.789088 4.041806 -25.226588 -0.966006 C -25.667994 -5.977725 -22.062525 -12.130069 -22.062525 -15.997256 C -22.062525 -15.997256 -19.45315 -16.770694 -17.023463 -12.165225 " transform="matrix(1, 0, 0, -1, 57.1719, 40.8504)"/>
<path fill="none" stroke-width="0.869" stroke-linecap="round" stroke-linejoin="round" stroke="rgb(0%, 0%, 0%)" stroke-opacity="1" stroke-miterlimit="10" d="M -0.000025 -0.0011625 L -0.000025 -7.821475 L 2.371069 -13.7121 L -0.527369 -14.68085 L -0.527369 -21.887881 L -3.781275 -22.852725 C -3.781275 -22.852725 -13.535181 -22.501163 -13.535181 -14.239444 C -13.535181 -14.239444 -17.57815 -13.626163 -17.57815 -10.196475 C -17.57815 -6.766788 -12.570338 -4.657413 -12.570338 -9.755069 C -12.570338 -9.755069 -10.1094 -9.844913 -10.1094 -6.153506 C -10.1094 -2.4621 -8.70315 -0.0011625 -5.273463 -0.0011625 Z M -0.000025 -0.0011625 " transform="matrix(1, 0, 0, -1, 57.1719, 40.8504)"/>
<path fill="none" stroke-width="0.869" stroke-linecap="round" stroke-linejoin="round" stroke="rgb(0%, 0%, 0%)" stroke-opacity="1" stroke-miterlimit="10" d="M 0.000175 0.0009 C 0.000175 0.0009 1.691581 1.110275 4.121269 0.84465 " transform="matrix(1, 0, 0, -1, 51.6092, 48.3134)"/>
<path fill="none" stroke-width="0.869" stroke-linecap="round" stroke-linejoin="round" stroke="rgb(0%, 0%, 0%)" stroke-opacity="1" stroke-miterlimit="10" d="M -0.00183125 0.00101875 C -0.00183125 0.3643 -0.2948 0.661175 -0.658081 0.661175 C -1.025269 0.661175 -1.318237 0.3643 -1.318237 0.00101875 C -1.318237 -0.366169 -1.025269 -0.659137 -0.658081 -0.659137 C -0.2948 -0.659137 -0.00183125 -0.366169 -0.00183125 0.00101875 Z M -0.00183125 0.00101875 " transform="matrix(1, 0, 0, -1, 54.8573, 49.7393)"/>
<path fill="none" stroke-width="0.869" stroke-linecap="round" stroke-linejoin="round" stroke="rgb(0%, 0%, 0%)" stroke-opacity="1" stroke-miterlimit="10" d="M 0.00003125 0.00008125 C 0.00003125 0.00008125 -2.023406 -0.0546063 -3.92575 0.632894 " transform="matrix(1, 0, 0, -1, 56.6445, 58.1368)"/>
<path fill="none" stroke-width="0.869" stroke-linecap="round" stroke-linejoin="round" stroke="rgb(0%, 0%, 0%)" stroke-opacity="1" stroke-miterlimit="10" d="M 0.000675 0.00074375 L -1.229794 -6.854725 C -1.229794 -6.854725 5.887394 -11.866444 13.008487 -13.7141 L 13.930362 -5.874256 " transform="matrix(1, 0, 0, -1, 35.1087, 56.8484)"/>
<path fill="none" stroke-width="0.869" stroke-linecap="round" stroke-linejoin="round" stroke="rgb(0%, 0%, 0%)" stroke-opacity="1" stroke-miterlimit="10" d="M 0 -0.00003125 L 8.878906 11.691375 " transform="matrix(1, 0, 0, -1, 25, 75.3945)"/>
<path fill="none" stroke-width="0.869" stroke-linecap="round" stroke-linejoin="round" stroke="rgb(0%, 0%, 0%)" stroke-opacity="1" stroke-miterlimit="10" d="M -0.00134375 0.00031875 L -0.227906 5.347975 L -0.6615 15.515944 L -7.606813 29.0511 " transform="matrix(1, 0, 0, -1, 55.724, 99.6136)"/>
<path fill="none" stroke-width="0.869" stroke-linecap="round" stroke-linejoin="round" stroke="rgb(0%, 0%, 0%)" stroke-opacity="1" stroke-miterlimit="10" d="M -0.00006875 0.00069375 L -0.5196 12.164756 " transform="matrix(1, 0, 0, -1, 56.6446, 121.1921)"/>
<path fill="none" stroke-width="0.869" stroke-linecap="round" stroke-linejoin="round" stroke="rgb(0%, 0%, 0%)" stroke-opacity="1" stroke-miterlimit="10" d="M -0.0004 -0.00153125 L 3.691006 -12.392156 L 19.425381 -7.2945 L 15.34335 7.0805 C 13.972256 11.904719 8.870694 14.635188 4.09335 13.096125 " transform="matrix(1, 0, 0, -1, 27.8129, 85.768)"/>
<path fill="none" stroke-width="0.869" stroke-linecap="round" stroke-linejoin="round" stroke="rgb(0%, 0%, 0%)" stroke-opacity="1" stroke-miterlimit="10" d="M -0.0009 0.0013875 L 4.920975 0.395919 L 10.549881 3.470137 C 9.838944 4.434981 8.534256 4.747481 7.463944 4.208419 L 4.21785 2.5717 L 1.932694 2.5717 L -2.239181 4.204512 L 1.53035 5.563887 C 2.788162 6.017012 3.471756 7.380294 3.077225 8.657637 L -2.989181 6.813887 C -2.989181 6.813887 -7.559494 7.735762 -10.196213 3.934981 L -32.258713 0.923262 L -34.543869 7.974044 " transform="matrix(1, 0, 0, -1, 79.9384, 101.6342)"/>
<path fill="none" stroke-width="0.869" stroke-linecap="round" stroke-linejoin="round" stroke="rgb(0%, 0%, 0%)" stroke-opacity="1" stroke-miterlimit="10" d="M 0.00019375 -0.001525 L 13.453319 -0.001525 C 13.453319 -0.001525 14.976756 2.342225 17.672069 2.810975 C 20.371287 3.279725 25.058787 4.217225 25.058787 4.217225 L 25.058787 4.018006 C 25.058787 2.721131 24.179881 1.588319 22.922069 1.268006 L 20.72285 0.7016 L 20.2541 -0.458556 " transform="matrix(1, 0, 0, -1, 55.4959, 94.2641)"/>
<path fill="none" stroke-width="0.869" stroke-linecap="round" stroke-linejoin="round" stroke="rgb(0%, 0%, 0%)" stroke-opacity="1" stroke-miterlimit="10" d="M -0.000725 0.0007 L 4.92115 0.613981 C 4.718025 0.274137 4.432869 -0.046175 4.10865 -0.34305 C 2.557869 -1.757113 0.409431 -2.315706 -1.649163 -1.925081 L -8.965569 -0.526644 L -34.281975 -8.803988 C -36.551506 -9.546175 -39.024163 -8.507113 -40.086663 -6.366488 L -46.301506 6.176481 " transform="matrix(1, 0, 0, -1, 79.2351, 103.8757)"/>
<path fill="none" stroke-width="0.869" stroke-linecap="round" stroke-linejoin="round" stroke="rgb(0%, 0%, 0%)" stroke-opacity="1" stroke-miterlimit="10" d="M -0.00135 -0.00131875 C -0.00135 -0.00131875 2.81115 0.967431 3.338494 3.252588 " transform="matrix(1, 0, 0, -1, 84.1576, 103.2604)"/>
<path fill="none" stroke-width="0.869" stroke-linecap="round" stroke-linejoin="round" stroke="rgb(0%, 0%, 0%)" stroke-opacity="1" stroke-miterlimit="10" d="M 0.00185625 0.0008125 L 1.915919 2.289875 C 2.349513 2.809406 3.040919 3.039875 3.701075 2.891437 L 4.49795 2.71175 L 3.673731 1.618 " transform="matrix(1, 0, 0, -1, 81.6583, 99.118)"/>
<path fill="none" stroke-width="0.869" stroke-linecap="round" stroke-linejoin="round" stroke="rgb(0%, 0%, 0%)" stroke-opacity="1" stroke-miterlimit="10" d="M -0.00135 0.0006 L 2.033806 2.703725 C 2.451775 3.262319 3.166619 3.520131 3.846306 3.359975 L 4.572869 3.184194 L 3.701775 1.8131 " transform="matrix(1, 0, 0, -1, 84.1576, 99.0631)"/>
<path fill="none" stroke-width="0.869" stroke-linecap="round" stroke-linejoin="round" stroke="rgb(0%, 0%, 0%)" stroke-opacity="1" stroke-miterlimit="10" d="M 0 -0.0006625 L -18.980469 5.866525 C -18.980469 5.866525 -20.265625 8.554025 -24.121094 8.905587 C -27.976562 9.253244 -31.945312 10.307931 -31.945312 10.307931 L -31.945312 9.604806 C -31.945312 8.511056 -31.242188 7.546212 -30.203125 7.206369 L -26.808594 6.1009 L -30.078125 4.116525 L -33.113281 5.151681 L -34.511719 6.452462 L -37.503906 6.917306 L -34.984375 2.929025 L -28.675781 0.526681 L -21.199219 0.589181 L 0 -11.883475 " transform="matrix(1, 0, 0, -1, 125, 92.9759)"/>
<path fill="none" stroke-width="0.869" stroke-linecap="round" stroke-linejoin="round" stroke="rgb(0%, 0%, 0%)" stroke-opacity="1" stroke-miterlimit="10" d="M -0.00071875 0.00193125 L -10.746813 -1.98635 L -9.899156 -2.8301 C -7.110094 -5.630881 -3.012438 -6.67385 0.776625 -5.552756 L 9.796156 -2.873069 " transform="matrix(1, 0, 0, -1, 75.3015, 82.6699)"/>
<path fill="none" stroke-width="0.869" stroke-linecap="round" stroke-linejoin="round" stroke="rgb(0%, 0%, 0%)" stroke-opacity="1" stroke-miterlimit="10" d="M 0.00056875 0.0004875 C 0.00056875 0.0004875 -14.460369 1.324706 -22.054119 4.711425 L -19.811931 10.66455 C -17.811931 15.965331 -12.225994 18.992675 -6.694744 17.777831 L -3.237713 17.016112 C 1.734944 15.922362 5.277912 11.516112 5.277912 6.422362 L 5.277912 2.953612 " transform="matrix(1, 0, 0, -1, 97.3549, 87.3833)"/>
<path fill="none" stroke-width="0.869" stroke-linecap="round" stroke-linejoin="round" stroke="rgb(0%, 0%, 0%)" stroke-opacity="1" stroke-miterlimit="10" d="M 0.00066875 -0.00081875 C -1.632144 0.0616812 -5.487612 -1.403163 -7.909487 -15.422694 " transform="matrix(1, 0, 0, -1, 90.7923, 69.6359)"/>
<path fill="none" stroke-width="0.869" stroke-linecap="round" stroke-linejoin="round" stroke="rgb(0%, 0%, 0%)" stroke-opacity="1" stroke-miterlimit="10" d="M -0.00066875 0.0006125 C 0.0813625 0.383425 0.159487 0.758425 0.2298 1.121706 " transform="matrix(1, 0, 0, -1, 95.4577, 87.1803)"/>
<path fill="none" stroke-width="0.869" stroke-linecap="round" stroke-linejoin="round" stroke="rgb(0%, 0%, 0%)" stroke-opacity="1" stroke-miterlimit="10" d="M 0.0015375 -0.0014875 C 1.396069 9.830544 -1.514088 12.537575 -3.307056 13.279763 " transform="matrix(1, 0, 0, -1, 96.1469, 83.3657)"/>
<path fill="none" stroke-width="0.869" stroke-linecap="round" stroke-linejoin="round" stroke="rgb(0%, 0%, 0%)" stroke-opacity="1" stroke-miterlimit="10" d="M 0.00185 -0.00125 C 0.00185 -0.00125 0.0838812 0.705781 1.494037 0.428437 C 2.904194 0.151094 2.642475 -0.579375 2.642475 -0.579375 " transform="matrix(1, 0, 0, -1, 90.5919, 69.5925)"/>
<path fill="none" stroke-width="0.869" stroke-linecap="round" stroke-linejoin="round" stroke="rgb(0%, 0%, 0%)" stroke-opacity="1" stroke-miterlimit="10" d="M 0.0017 0.00078125 C 0.0017 0.422656 -0.34205 0.766406 -0.767831 0.766406 C -1.193613 0.766406 -1.537363 0.422656 -1.537363 0.00078125 C -1.537363 -0.425 -1.193613 -0.76875 -0.767831 -0.76875 C -0.34205 -0.76875 0.0017 -0.425 0.0017 0.00078125 Z M 0.0017 0.00078125 " transform="matrix(1, 0, 0, -1, 91.5608, 72.7)"/>
</svg>
