<?xml version="1.0" encoding="UTF-8"?><svg id="Layer_1" xmlns="http://www.w3.org/2000/svg" viewBox="0 0 100.7 68.26"><path d="M1.14,54.59s3.99-3.35,12.48-3.35,19.08,7.56,25.72,11.87,11.17,6.4,22.46,3.37,21.76-15.36,21.76-15.36c0,0-9.66-1.4-26.18-8.84-16.52-7.45-28.16-4.54-32.47-2.56S-.11,51.23.36,56.94s14.6,3.64,21.93-3.58" fill="none" stroke="#231f20" stroke-linecap="round" stroke-linejoin="round" stroke-width=".7"/><path d="M83.56,51.12s7.6,1.81,15.32,2.24c0,0,11.58-41.82-30.33-49.95C29.57-4.16,24.91,39.71,24.91,39.71" fill="none" stroke="#231f20" stroke-linecap="round" stroke-linejoin="round" stroke-width=".7"/><path d="M39.83,37.57S48.53.26,68.55,3.41c20.02,3.14,8.48,46.18,8.48,46.18" fill="none" stroke="#231f20" stroke-linecap="round" stroke-linejoin="round" stroke-width=".7"/><path d="M64.38,2.74s.67-2.71,4.75-2.36,3.49,3.98,3.49,3.98" fill="none" stroke="#231f20" stroke-linecap="round" stroke-linejoin="round" stroke-width=".7"/><ellipse cx="65.44" cy="12.92" rx="1.39" ry="1.72" transform="translate(42.23 75.45) rotate(-80.81)" fill="none" stroke="#231f20" stroke-linecap="round" stroke-linejoin="round" stroke-width=".7"/><ellipse cx="88.79" cy="18.88" rx="1.05" ry="1.72" transform="translate(5.81 55.68) rotate(-35.92)" fill="none" stroke="#231f20" stroke-linecap="round" stroke-linejoin="round" stroke-width=".7"/><ellipse cx="42.7" cy="10.73" rx="1.72" ry=".93" transform="translate(1.82 27.09) rotate(-35.92)" fill="none" stroke="#231f20" stroke-linecap="round" stroke-linejoin="round" stroke-width=".7"/><path d="M1.14,54.59s3.99-3.35,12.48-3.35,19.08,7.56,25.72,11.87,11.17,6.4,22.46,3.37,21.76-15.36,21.76-15.36" fill="none" stroke="#231f20" stroke-linecap="round" stroke-linejoin="round" stroke-width=".7"/><path d="M7.73,48.87s4.01-2.2,11.89-.34c7.37,1.75,15.87,7.64,20.8,10.7s10.36,5.66,19.93,2.58,17.55-11.91,17.55-11.91" fill="none" stroke="#231f20" stroke-linecap="round" stroke-linejoin="round" stroke-width=".7"/><path d="M13.46,45.43s4.95-.98,11.45,1.13,13.37,6.97,16.6,8.79,9.54,4.91,17.4,1.78c7.86-3.13,13.74-8.88,13.74-8.88" fill="none" stroke="#231f20" stroke-linecap="round" stroke-linejoin="round" stroke-width=".7"/></svg>