<?xml version="1.0" encoding="UTF-8"?><svg id="Layer_1" xmlns="http://www.w3.org/2000/svg" viewBox="0 0 57.57 57.57"><rect x="3.42" y="33.45" width="21.12" height="15.03" rx="2.97" ry="2.97" fill="none" stroke="#010101" stroke-linecap="round" stroke-linejoin="round" stroke-width=".5"/><rect x="3.42" y="37.09" width="21.12" height="1.21" fill="none" stroke="#010101" stroke-linecap="round" stroke-linejoin="round" stroke-width=".5"/><rect x="12.16" y="24.61" width="4.26" height="4.26" rx=".63" ry=".63" transform="translate(23.1 -2.28) rotate(45)" fill="none" stroke="#010101" stroke-linecap="round" stroke-linejoin="round" stroke-width=".5"/><path d="M9.95,18.17l-.4-.36c-.24-.21-.54-.33-.86-.32l-2.61.09c-.66.02-1.18.56-1.18,1.22v2.65" fill="none" stroke="#010101" stroke-linecap="round" stroke-linejoin="round" stroke-width=".5"/><path d="M28.58,46.82l-1.41-18.24c-.53-6.8-6.04-10.11-12.87-10.11h-.01c-6.82,0-12.35,3.3-12.87,10.11L.01,46.82c-.21,2.68,1.91,4.97,4.6,4.97h19.36c2.69,0,4.81-2.29,4.6-4.97Z" fill="none" stroke="#010101" stroke-linecap="round" stroke-linejoin="round" stroke-width=".5"/><path d="M3,28.08c.33-2.5,1.47-4.47,3.39-5.87,1.98-1.45,4.72-2.21,7.91-2.21h.01c3.19,0,5.92.76,7.9,2.21,1.9,1.39,3.04,3.34,3.38,5.81" fill="none" stroke="#010101" stroke-linecap="round" stroke-linejoin="round" stroke-width=".5"/><line x1="2.64" y1="32.52" x2="2.85" y2="29.78" fill="none" stroke="#010101" stroke-linecap="round" stroke-linejoin="round" stroke-width=".5"/><path d="M27.08,46.94c.07.87-.22,1.71-.82,2.35-.59.64-1.4,1-2.28,1H4.62c-.88,0-1.68-.35-2.28-1-.59-.64-.88-1.48-.82-2.35" fill="none" stroke="#010101" stroke-linecap="round" stroke-linejoin="round" stroke-width=".5"/><line x1="25.71" y1="29.3" x2="25.88" y2="31.51" fill="none" stroke="#010101" stroke-linecap="round" stroke-linejoin="round" stroke-width=".5"/><path d="M14.3,13.5h0c-4.21,0-4.44,5.5-4.44,5.5l1.99-.37.26-1.69c.12-.77.78-1.34,1.56-1.34h1.25c.78,0,1.44.57,1.56,1.34l.26,1.69,1.99.37s-.23-5.5-4.44-5.5Z" fill="none" stroke="#010101" stroke-linecap="round" stroke-linejoin="round" stroke-width=".5"/><path d="M18.64,18.17l.4-.36c.24-.21.54-.33.86-.32l2.61.09c.66.02,1.18.56,1.18,1.22v2.65" fill="none" stroke="#010101" stroke-linecap="round" stroke-linejoin="round" stroke-width=".5"/><rect x="5.04" y="37.09" width="1.21" height="1.21" rx=".29" ry=".29" fill="none" stroke="#010101" stroke-linecap="round" stroke-linejoin="round" stroke-width=".5"/><rect x="5.14" y="38.3" width=".83" height="4.5" rx=".41" ry=".41" fill="none" stroke="#010101" stroke-linecap="round" stroke-linejoin="round" stroke-width=".5"/><path d="M23.53,18.18h0c1.06-1.4,2.52-2.43,4.16-2.97" fill="none" stroke="#010101" stroke-linecap="round" stroke-linejoin="round" stroke-width=".5"/><path d="M37.61,18.18s1.16-2.36,6.06-4.86,4.26-3.5,4.26-4.04c0-.98-4.21-1.91-9.38-1.91s-9.69.93-9.69,2.19c0,1.84,3.33,3.21,6.1,4.36s3.66,2.86,3.66,2.86" fill="none" stroke="#010101" stroke-linecap="round" stroke-linejoin="round" stroke-width=".5"/><path d="M28.93,9.29s-1.91,3.83-1.57,5.18,4.06,2.81,9.56,3.02" fill="none" stroke="#010101" stroke-linecap="round" stroke-linejoin="round" stroke-width=".5"/><path d="M47.83,9.02s2.43,4.72,1.56,5.92-7.87,2.81-10.12,2.55" fill="none" stroke="#010101" stroke-linecap="round" stroke-linejoin="round" stroke-width=".5"/><path d="M48.98,15.29s3.69.85,5,5.31c1.03,3.5,2.83,16.32,3.57,21.71.17,1.28-.82,2.41-2.11,2.41h-1.4s-2.82.06-3.56-.78" fill="none" stroke="#010101" stroke-linecap="round" stroke-linejoin="round" stroke-width=".5"/><path d="M50.48,22.24v21.15c0,1.3-.54,2.35-1.84,2.35h-20.1" fill="none" stroke="#010101" stroke-linecap="round" stroke-linejoin="round" stroke-width=".5"/><path d="M48.98,45.73v2.13c0,.49-.4.89-.89.89h-19.76" fill="none" stroke="#010101" stroke-linecap="round" stroke-linejoin="round" stroke-width=".5"/><path d="M44.1,35.85h-11.4s-.47,3.89-3,6.31v3.57h17.39v-3.57c-2.52-2.42-3-6.31-3-6.31Z" fill="none" stroke="#010101" stroke-linecap="round" stroke-linejoin="round" stroke-width=".5"/><path d="M50.98,44.29v2.53c0,.5.41.91.91.91h3.62c.5,0,.91-.41.91-.91v-2.33" fill="none" stroke="#010101" stroke-linecap="round" stroke-linejoin="round" stroke-width=".5"/><line x1="41.79" y1="16.25" x2="41.79" y2="25.3" fill="none" stroke="#010101" stroke-linecap="round" stroke-linejoin="round" stroke-width=".5"/><line x1="35.19" y1="16.25" x2="35.19" y2="25.3" fill="none" stroke="#010101" stroke-linecap="round" stroke-linejoin="round" stroke-width=".5"/><path d="M37.84,15.79l-4.85-4.73c-1.02-.99-.71-1.31,2.42-1.78" fill="none" stroke="#010101" stroke-linecap="round" stroke-linejoin="round" stroke-width=".5"/><path d="M39.79,15.79l4.85-4.73c1.02-.99.71-1.31-2.42-1.78" fill="none" stroke="#010101" stroke-linecap="round" stroke-linejoin="round" stroke-width=".5"/><path d="M35.73,13.73s2.89-.71,6.18,0" fill="none" stroke="#010101" stroke-linecap="round" stroke-linejoin="round" stroke-width=".5"/></svg>