<?xml version="1.0" encoding="UTF-8"?><svg id="Layer_1" xmlns="http://www.w3.org/2000/svg" viewBox="0 0 57.57 57.57"><rect x="5.05" y="24.54" width="47.88" height="23.58" fill="none" stroke="#010101" stroke-linecap="round" stroke-linejoin="round" stroke-width=".48"/><rect x="51.37" y="24.54" width="1.56" height="23.58" fill="none" stroke="#010101" stroke-linecap="round" stroke-linejoin="round" stroke-width=".48"/><rect x="5.05" y="24.54" width="1.56" height="23.58" fill="none" stroke="#010101" stroke-linecap="round" stroke-linejoin="round" stroke-width=".48"/><rect x="11.25" y="29.93" width="9.12" height="18.18" fill="none" stroke="#010101" stroke-linecap="round" stroke-linejoin="round" stroke-width=".48"/><rect x="7.32" y="36.26" width="16.98" height="6.72" transform="translate(55.43 23.81) rotate(90)" fill="none" stroke="#010101" stroke-linecap="round" stroke-linejoin="round" stroke-width=".48"/><rect x="23.02" y="31.6" width="25.48" height="11.41" fill="none" stroke="#010101" stroke-linecap="round" stroke-linejoin="round" stroke-width=".48"/><polygon points="1.18 21.33 6.6 12.16 51.37 12.16 56.39 21.33 1.18 21.33" fill="none" stroke="#010101" stroke-linecap="round" stroke-linejoin="round" stroke-width=".48"/><rect x="1.18" y="21.33" width="55.21" height="3.2" fill="none" stroke="#010101" stroke-linecap="round" stroke-linejoin="round" stroke-width=".48"/><line x1="12.45" y1="40.27" x2="19.17" y2="40.27" fill="none" stroke="#010101" stroke-linecap="round" stroke-linejoin="round" stroke-width=".48"/><line x1="26.19" y1="37.35" x2="26.19" y2="36.02" fill="none" stroke="#010101" stroke-linecap="round" stroke-linejoin="round" stroke-width=".48"/><path d="M29.45,33.86h-.15c0,.63-.51,1.15-1.15,1.15s-1.15-.51-1.15-1.15h-.15c-1.33,0-2.41,1.08-2.41,2.41v1.08h1.74v3.42h3.93v-3.42h1.74v-1.08c0-1.33-1.08-2.41-2.41-2.41Z" fill="none" stroke="#010101" stroke-linecap="round" stroke-linejoin="round" stroke-width=".48"/><line x1="30.12" y1="37.35" x2="30.12" y2="36.02" fill="none" stroke="#010101" stroke-linecap="round" stroke-linejoin="round" stroke-width=".48"/><rect x="27.54" y="40.77" width="1.14" height="1.73" fill="none" stroke="#010101" stroke-linecap="round" stroke-linejoin="round" stroke-width=".48"/><line x1="26.18" y1="42.5" x2="30.12" y2="42.5" fill="none" stroke="#010101" stroke-linecap="round" stroke-linejoin="round" stroke-width=".48"/><line x1="41.46" y1="37.35" x2="41.46" y2="36.02" fill="none" stroke="#010101" stroke-linecap="round" stroke-linejoin="round" stroke-width=".48"/><path d="M44.72,33.86h-.15c0,.63-.51,1.15-1.15,1.15s-1.15-.51-1.15-1.15h-.15c-1.33,0-2.41,1.08-2.41,2.41v1.08h1.74v3.42h3.93v-3.42h1.74v-1.08c0-1.33-1.08-2.41-2.41-2.41Z" fill="none" stroke="#010101" stroke-linecap="round" stroke-linejoin="round" stroke-width=".48"/><line x1="45.39" y1="37.35" x2="45.39" y2="36.02" fill="none" stroke="#010101" stroke-linecap="round" stroke-linejoin="round" stroke-width=".48"/><rect x="42.81" y="40.77" width="1.14" height="1.73" fill="none" stroke="#010101" stroke-linecap="round" stroke-linejoin="round" stroke-width=".48"/><line x1="41.45" y1="42.5" x2="45.39" y2="42.5" fill="none" stroke="#010101" stroke-linecap="round" stroke-linejoin="round" stroke-width=".48"/><path d="M34.59,42.34v-1.04c0-.73-.59-1.33-1.33-1.33h-.43c-.73,0-1.33.6-1.33,1.33v1.02" fill="none" stroke="#010101" stroke-linecap="round" stroke-linejoin="round" stroke-width=".48"/><path d="M30.96,42.65s1.86-1.53,4.18,0" fill="none" stroke="#010101" stroke-linecap="round" stroke-linejoin="round" stroke-width=".48"/><path d="M39.95,42.34v-1.04c0-.73-.59-1.33-1.33-1.33h-.43c-.73,0-1.33.6-1.33,1.33v1.02" fill="none" stroke="#010101" stroke-linecap="round" stroke-linejoin="round" stroke-width=".48"/><path d="M36.32,42.65s1.86-1.53,4.18,0" fill="none" stroke="#010101" stroke-linecap="round" stroke-linejoin="round" stroke-width=".48"/><path d="M33.21,39.89c0-.09-.08-.17-.17-.17s-.17.08-.17.17" fill="none" stroke="#010101" stroke-linecap="round" stroke-linejoin="round" stroke-width=".48"/><path d="M38.58,39.89c0-.09-.08-.17-.17-.17s-.17.08-.17.17" fill="none" stroke="#010101" stroke-linecap="round" stroke-linejoin="round" stroke-width=".48"/><line y1="48.11" x2="57.57" y2="48.11" fill="none" stroke="#010101" stroke-linecap="round" stroke-linejoin="round" stroke-width=".48"/></svg>