<?xml version="1.0" encoding="UTF-8"?><svg id="Layer_1" xmlns="http://www.w3.org/2000/svg" viewBox="0 0 57.57 57.57"><path d="M10.53,15.78c-2.61.46-4.59,2.73-4.59,5.47,0,.44.05.87.15,1.28-1.48,1.43-2.41,3.44-2.41,5.66,0,4.34,3.52,7.87,7.87,7.87,1.87,0,3.58-.65,4.93-1.74-.08.41-.13.84-.13,1.28,0,3.64,2.95,6.59,6.59,6.59,2.08,0,3.93-.96,5.14-2.47.79.81,1.89,1.32,3.12,1.32,1.61,0,3.01-.87,3.76-2.17.57.28,1.22.44,1.9.44,2.32,0,4.2-1.81,4.34-4.09,1.06.53,2.26.83,3.52.83,4.34,0,7.87-3.52,7.87-7.87,0-2.25-.94-4.27-2.45-5.7.09-.4.14-.81.14-1.23,0-2.61-1.8-4.8-4.22-5.39.21-.59.33-1.22.33-1.88,0-3.07-2.49-5.56-5.56-5.56-.7,0-1.37.13-1.99.37-.6-2.42-2.79-4.21-5.39-4.21-2.44,0-4.51,1.57-5.26,3.76-.75-2.18-2.82-3.76-5.26-3.76-2.58,0-4.74,1.76-5.37,4.14" fill="none" stroke="#010101" stroke-linecap="round" stroke-linejoin="round" stroke-width=".51"/><path d="M46.07,15.85c.21-.59.33-1.22.33-1.88,0-3.07-2.49-5.56-5.56-5.56-2.64,0-4.85,1.85-5.42,4.32" fill="none" stroke="#010101" stroke-linecap="round" stroke-linejoin="round" stroke-width=".51"/><path d="M40.32,17.54s1.15-1.85,4.41-1.85c3.07,0,5.56,2.49,5.56,5.56,0,2.01-1.07,3.78-2.67,4.75-1.76,1.07-2.88,2.21-2.88,4.26v.82" fill="none" stroke="#010101" stroke-linecap="round" stroke-linejoin="round" stroke-width=".51"/><path d="M21.22,12.83c-.53-2.52-2.76-4.41-5.44-4.41-3.07,0-5.56,2.49-5.56,5.56,0,.63.1,1.24.3,1.8" fill="none" stroke="#010101" stroke-linecap="round" stroke-linejoin="round" stroke-width=".51"/><path d="M15.91,17.54s-1.15-1.85-4.41-1.85c-3.07,0-5.56,2.49-5.56,5.56,0,2.01,1.07,3.78,2.67,4.75,1.76,1.07,2.88,2.21,2.88,4.26v.82" fill="none" stroke="#010101" stroke-linecap="round" stroke-linejoin="round" stroke-width=".51"/><path d="M27.12,40.7s.79,2.65,4.07,4.6c3.28,1.95,5.08,7.7,5.08,7.7l4.42-1.28-2-7.27" fill="none" stroke="#010101" stroke-linecap="round" stroke-linejoin="round" stroke-width=".51"/><path d="M35.42,43.44s4.07,2.71,9.16-.38,3.38-7.7,3.38-7.7" fill="none" stroke="#010101" stroke-linecap="round" stroke-linejoin="round" stroke-width=".51"/><path d="M28.21,20.64s-1.49-2.66-4.96-2.66-5.04,2.78-5.04,5.4,1.98,6.88,9.99,11.97" fill="none" stroke="#010101" stroke-linecap="round" stroke-linejoin="round" stroke-width=".51"/><path d="M28.2,20.64s1.49-2.66,4.96-2.66,5.04,2.78,5.04,5.4-1.98,6.88-9.99,11.97" fill="none" stroke="#010101" stroke-linecap="round" stroke-linejoin="round" stroke-width=".51"/><line x1="28.2" y1="8.34" x2="28.2" y2="20.61" fill="none" stroke="#010101" stroke-linecap="round" stroke-linejoin="round" stroke-width=".51"/></svg>