<?xml version="1.0" encoding="UTF-8"?><svg id="Layer_1" xmlns="http://www.w3.org/2000/svg" viewBox="0 0 57.57 57.57"><path d="M18.52,9.12v4.5l1.37,3.39-1.67.56v4.15l-1.87.56s-5.62-.2-5.62-4.96c0,0-2.33-.35-2.33-2.33s2.88-3.19,2.88-.25c0,0,1.42.05,1.42-2.07s.81-3.54,2.78-3.54h3.04Z" fill="none" stroke="#010101" stroke-linecap="round" stroke-linejoin="round" stroke-width=".5"/><path d="M18.52,9.12s1.42-.15,2.23-1.47,0-3.14,0-3.14c0,0-.96,1.06-2.23,1.06,0,0,1.27-1.52.56-3.39,0,0-.81,1.01-2.28,1.37s-4.35.66-6.07.35-4.35,1.1-4.4,2.9c0,0-2.07-.02-2.33,2.86s1.82,6.43,1.82,8.65c0,0,1.5.45,2.9-2.21" fill="none" stroke="#010101" stroke-linecap="round" stroke-linejoin="round" stroke-width=".5"/><path d="M5.82,18.33l-.71,3.95s4.1,2.88,8.2,3.95l.53-4.51" fill="none" stroke="#010101" stroke-linecap="round" stroke-linejoin="round" stroke-width=".5"/><line y1="29.01" x2="5.11" y2="22.28" fill="none" stroke="#010101" stroke-linecap="round" stroke-linejoin="round" stroke-width=".5"/><line x1="18.22" y1="55.38" x2="17.92" y2="48.37" fill="none" stroke="#010101" stroke-linecap="round" stroke-linejoin="round" stroke-width=".5"/><polyline points="17.69 42.95 17.56 39.87 17.31 34.02 13.31 26.23" fill="none" stroke="#010101" stroke-linecap="round" stroke-linejoin="round" stroke-width=".5"/><path d="M1.62,34.98l2.13,7.13,9.06-2.93-2.35-8.28c-.79-2.78-3.73-4.35-6.48-3.46h0" fill="none" stroke="#010101" stroke-linecap="round" stroke-linejoin="round" stroke-width=".5"/><path d="M31.22,45.41l2.83-.35c-.12.2-.28.38-.47.55-.89.81-2.13,1.14-3.31.91l-4.21-.8-14.57,4.76c-1.31.43-2.73-.17-3.34-1.4l-3.58-7.22" fill="none" stroke="#010101" stroke-linecap="round" stroke-linejoin="round" stroke-width=".5"/><path d="M34.06,45.05s1.62-.56,1.92-1.87" fill="none" stroke="#010101" stroke-linecap="round" stroke-linejoin="round" stroke-width=".5"/><path d="M31.63,44.12l2.83-.23,3.24-1.77h0c-.41-.56-1.16-.73-1.77-.42l-1.87.94h-1.32l-2.4-.94,2.17-.78c.72-.26,1.12-1.05.89-1.78h0s-3.49,1.06-3.49,1.06c0,0-2.63-.53-4.15,1.66l-12.7,1.73-1.31-4.06" fill="none" stroke="#010101" stroke-linecap="round" stroke-linejoin="round" stroke-width=".5"/><path d="M34.06,42.64l1.17-1.56c.24-.32.65-.47,1.04-.38l.42.1-.5.79" fill="none" stroke="#010101" stroke-linecap="round" stroke-linejoin="round" stroke-width=".5"/><path d="M32.62,42.67l1.1-1.32c.25-.3.65-.43,1.03-.35l.46.1-.47.63" fill="none" stroke="#010101" stroke-linecap="round" stroke-linejoin="round" stroke-width=".5"/><path d="M17.56,39.87h7.75s.88-1.35,2.43-1.62,4.25-.81,4.25-.81v.11c0,.75-.51,1.4-1.23,1.58l-1.27.33-.27.67" fill="none" stroke="#010101" stroke-linecap="round" stroke-linejoin="round" stroke-width=".5"/><path d="M18.22,19.08s-1.17.03-2.26-.36" fill="none" stroke="#010101" stroke-linecap="round" stroke-linejoin="round" stroke-width=".5"/><path d="M15.32,13.42s.97-.64,2.37-.49" fill="none" stroke="#010101" stroke-linecap="round" stroke-linejoin="round" stroke-width=".5"/><circle cx="16.81" cy="14.24" r=".38" fill="none" stroke="#010101" stroke-linecap="round" stroke-linejoin="round" stroke-width=".5"/><path d="M57.57,39.13l-10.93-3.38s-.74-1.55-2.96-1.75-4.5-.81-4.5-.81v.4c0,.63.4,1.19,1,1.38l1.96.64-1.88,1.14-1.75-.6-.81-.75-1.72-.27,1.45,2.3,3.63,1.38,4.3-.04,12.2,7.18" fill="none" stroke="#010101" stroke-linecap="round" stroke-linejoin="round" stroke-width=".5"/><path d="M41.65,35.91s-8.33-.76-12.7-2.71l1.29-3.43c1.15-3.05,4.37-4.79,7.55-4.09l1.99.44c2.86.63,4.9,3.17,4.9,6.1v2" fill="none" stroke="#010101" stroke-linecap="round" stroke-linejoin="round" stroke-width=".5"/><path d="M28.96,33.2l-6.19,1.14.49.49c1.61,1.61,3.97,2.21,6.15,1.56l5.19-1.54" fill="none" stroke="#010101" stroke-linecap="round" stroke-linejoin="round" stroke-width=".5"/><polyline points="38.32 25.79 38.32 25.79 38.32 25.79" fill="none" stroke="#010101" stroke-linecap="round" stroke-linejoin="round" stroke-width=".5"/><path d="M40.56,35.8h0c.05-.22.09-.44.13-.65" fill="none" stroke="#010101" stroke-linecap="round" stroke-linejoin="round" stroke-width=".5"/><path d="M40.96,33.6c.8-5.66-.87-7.22-1.9-7.64h0" fill="none" stroke="#010101" stroke-linecap="round" stroke-linejoin="round" stroke-width=".5"/><path d="M37.87,25.7c-.94-.04-3.16.81-4.55,8.88h0" fill="none" stroke="#010101" stroke-linecap="round" stroke-linejoin="round" stroke-width=".5"/><path d="M37.76,25.67s.05-.41.86-.25.66.58.66.58" fill="none" stroke="#010101" stroke-linecap="round" stroke-linejoin="round" stroke-width=".5"/><circle cx="37.87" cy="27.46" r=".44" fill="none" stroke="#010101" stroke-linecap="round" stroke-linejoin="round" stroke-width=".5"/></svg>