<?xml version="1.0" encoding="UTF-8"?><svg id="Layer_1" xmlns="http://www.w3.org/2000/svg" viewBox="0 0 57.57 57.57"><rect x="6.17" y="31.07" width="45.38" height="13.41" fill="none" stroke="#010101" stroke-linecap="round" stroke-linejoin="round" stroke-width=".5"/><polyline points="6.17 31.07 13.87 26.61 44.11 26.61 51.55 31.07" fill="none" stroke="#010101" stroke-linecap="round" stroke-linejoin="round" stroke-width=".5"/><path d="M50.39,14.73l-.63-1.65H7.96l-.63,1.65c-.43,1.14.16,2.51,1.08,2.51h40.89c.92,0,1.52-1.37,1.08-2.51Z" fill="none" stroke="#010101" stroke-linecap="round" stroke-linejoin="round" stroke-width=".5"/><line x1="13.88" y1="31.07" x2="13.88" y2="26.61" fill="none" stroke="#010101" stroke-linecap="round" stroke-linejoin="round" stroke-width=".5"/><path d="M9.13,17.24l4.75,9.37h-1.65c-.93,0-1.78-.52-2.2-1.33l-2.4-4.64c-.31-.58-.34-1.27-.1-1.88l.6-1.56" fill="none" stroke="#010101" stroke-linecap="round" stroke-linejoin="round" stroke-width=".5"/><line x1="44.11" y1="31.07" x2="44.11" y2="26.61" fill="none" stroke="#010101" stroke-linecap="round" stroke-linejoin="round" stroke-width=".5"/><path d="M48.85,17.24l-4.74,9.37h1.65c.93,0,1.78-.52,2.2-1.33l2.4-4.64c.3-.58.34-1.27.1-1.88l-.64-1.66" fill="none" stroke="#010101" stroke-linecap="round" stroke-linejoin="round" stroke-width=".5"/></svg>