<?xml version="1.0" encoding="UTF-8"?><svg id="Layer_1" xmlns="http://www.w3.org/2000/svg" viewBox="0 0 57.57 57.57"><path d="M28.79,20.41v-11.34s-5.93-.45-11.27,2.28c0,.01,0,.02-.02.01-1.49.76-2.94,1.77-4.19,3.11-6.27,6.68-6.93,22.15-6.93,22.15l2.24.52s.66-.21,1.94-.51c2.96-.7,9.24-1.85,18.23-1.85v-5.24" fill="none" stroke="#010101" stroke-linecap="round" stroke-linejoin="round" stroke-width=".5"/><path d="M17.8,11.15s-6.59,4.27-8,14.59c-1.23,8.96-1.19,11.4-1.19,11.4" fill="none" stroke="#010101" stroke-linecap="round" stroke-linejoin="round" stroke-width=".5"/><ellipse cx="20.51" cy="12.66" rx="1.31" ry=".72" transform="translate(-2.27 4.79) rotate(-12.64)" fill="none" stroke="#010101" stroke-linecap="round" stroke-linejoin="round" stroke-width=".5"/><path d="M28.79,20.41v-11.34s5.96-.45,11.31,2.31c1.48.75,2.92,1.76,4.17,3.09,6.27,6.68,6.93,22.15,6.93,22.15l-2.24.52s-.69-.22-2.02-.53c-2.99-.7-9.24-1.83-18.15-1.83v-5.24" fill="none" stroke="#010101" stroke-linecap="round" stroke-linejoin="round" stroke-width=".5"/><path d="M8.61,37.14c-2.96,8.3-2.93,13.85,7.85,10.17,9.13-2.74,14.98-2.79,23.74-.26,11,3.79,12.13-.37,8.75-9.91" fill="none" stroke="#010101" stroke-linecap="round" stroke-linejoin="round" stroke-width=".5"/><path d="M10.55,36.63c-.73,2.21-1.57,4.87-1.6,7.23-.08,2.38,2.4,2.2,4.12,1.91,7.84-1.92,15.28-3.77,23.4-1.86,2.71.5,5.6,1.49,8.3,1.91,1.22.15,2.98.36,3.59-.86.73-1.95-.72-6.1-1.44-8.33" fill="none" stroke="#010101" stroke-linecap="round" stroke-linejoin="round" stroke-width=".5"/><path d="M12.54,36.62c-.65,1.6-1.4,3.51-1.43,5.21-.07,1.72,2.14,1.59,3.67,1.37,6.99-1.39,13.61-2.72,20.85-1.34,2.41.36,4.99,1.08,7.39,1.38,1.09.11,2.65.26,3.2-.62.65-1.4-.64-4.39-1.28-6.01" fill="none" stroke="#010101" stroke-linecap="round" stroke-linejoin="round" stroke-width=".5"/><path d="M39.77,11.15s6.56,3.9,8,14.59c1.21,8.96,1.19,11.4,1.19,11.4" fill="none" stroke="#010101" stroke-linecap="round" stroke-linejoin="round" stroke-width=".5"/><ellipse cx="36.86" cy="12.65" rx=".72" ry="1.31" transform="translate(16.45 45.85) rotate(-77.36)" fill="none" stroke="#010101" stroke-linecap="round" stroke-linejoin="round" stroke-width=".5"/><path d="M26.07,9.04s.32-1.84,2.69-1.84,2.76,1.91,2.76,1.91" fill="none" stroke="#010101" stroke-linecap="round" stroke-linejoin="round" stroke-width=".5"/><rect x="20.51" y="20.41" width="16.35" height="9.13" rx="1.43" ry="1.43" fill="none" stroke="#010101" stroke-linecap="round" stroke-linejoin="round" stroke-width=".5"/></svg>