<?xml version="1.0" encoding="UTF-8"?>
<svg id="Layer_1" xmlns="http://www.w3.org/2000/svg" version="1.1" viewBox="0 0 100.5 97.9">
  <!-- Generator: Adobe Illustrator 30.3.0, SVG Export Plug-In . SVG Version: 2.1.3 Build 182)  -->
  <defs>
    <style>
      .st0 {
        fill: #fff;
      }

      .st1 {
        fill: none;
        stroke: #000;
        stroke-linecap: round;
        stroke-linejoin: round;
        stroke-width: .5px;
      }
    </style>
  </defs>
  <rect class="st0" x=".3" y="0" width="100" height="100"/>
  <g>
    <g>
      <g>
        <circle class="st1" cx="57.1" cy="54.5" r="24.8"/>
        <circle class="st1" cx="57.1" cy="54.5" r="19.8"/>
        <path class="st1" d="M74.6,72s-2.4,2.1-2.4,2l7.9,7.9,2.2-2.2,2.2-2.2-7.9-7.9c0,0-2,2.4-2,2.4Z"/>
        <path class="st1" d="M87.2,77.8c-.8-.8-2.1-.8-2.9,0l-2,2-2,2c-.8.8-.8,2.1,0,2.9l12.4,12.4c.8.8,2.1.8,2.9,0s2-2,2-2c0,0,1-1,2-2s.8-2.1,0-2.9l-12.4-12.4Z"/>
      </g>
      <line class="st1" x1="60.8" y1="43.6" x2="46.5" y2="63"/>
      <line class="st1" x1="60.4" y1="56.3" x2="53.8" y2="65.2"/>
    </g>
    <g>
      <g>
        <path class="st1" d="M16,7.3s2.7,5.3,2.7,13.2"/>
        <line class="st1" x1="18.1" y1="28.8" x2="17.3" y2="35.8"/>
      </g>
      <g>
        <polyline class="st1" points="69.2 38.8 64.8 36.3 64.7 72.8"/>
        <path class="st1" d="M44.5,75.9c-1.1,0-2.3,0-3.5,0-12.7,0-23.6-1.3-23.6-1.3l-.2-38.8-5.6,3.8L.2,25.3S11.2,13,16,7.3C20.8,1.6,31.1.2,31.1.2c0,0,2.6,3.5,10,3.5S51,.2,51,.2c0,0,10.3,1.3,15.1,7,4.8,5.7,15.7,18.1,15.7,18.1l-8.4,10.5"/>
        <path class="st1" d="M66.1,7.3s-2.7,5.3-2.7,13.2"/>
        <line class="st1" x1="64.3" y1="30.8" x2="64" y2="28.8"/>
      </g>
    </g>
  </g>
  <path class="st1" d="M31.1.3s.2,8.9,10,8.9S51,.3,51,.3"/>
</svg>