<?xml version="1.0" encoding="UTF-8"?><svg id="Layer_1" xmlns="http://www.w3.org/2000/svg" viewBox="0 0 57.57 57.57"><path d="M8.51,34.22V8.12c0-.84.68-1.52,1.52-1.52h37.84c.84,0,1.52.68,1.52,1.52v26.1s-40.72-.17-40.89,0Z" fill="none" stroke="#010101" stroke-linecap="round" stroke-linejoin="round" stroke-width=".5"/><polygon points="8.51 34.22 0 43.97 57.57 43.97 49.4 34.22 8.51 34.22" fill="none" stroke="#010101" stroke-linecap="round" stroke-linejoin="round" stroke-width=".5"/><polygon points="4.4 41.97 9.42 36.22 48.47 36.22 53.28 41.97 4.4 41.97" fill="none" stroke="#010101" stroke-linecap="round" stroke-linejoin="round" stroke-width=".5"/><path d="M0,43.97l.72,1.62c.34.78,1.12,1.28,1.97,1.28h52.49c1,0,1.87-.69,2.1-1.66l.29-1.24H0Z" fill="none" stroke="#010101" stroke-linecap="round" stroke-linejoin="round" stroke-width=".5"/><line x1="27.77" y1="8.35" x2="29.87" y2="8.35" fill="none" stroke="#010101" stroke-linecap="round" stroke-linejoin="round" stroke-width=".5"/><line x1="48.47" y1="36.22" x2="53.28" y2="41.97" fill="none" stroke="#010101" stroke-linecap="round" stroke-linejoin="round" stroke-width=".5"/><line x1="13.31" y1="36.22" x2="9.29" y2="41.97" fill="none" stroke="#010101" stroke-linecap="round" stroke-linejoin="round" stroke-width=".5"/><line x1="17.19" y1="36.22" x2="14.18" y2="41.97" fill="none" stroke="#010101" stroke-linecap="round" stroke-linejoin="round" stroke-width=".5"/><line x1="21.07" y1="36.22" x2="19.07" y2="41.97" fill="none" stroke="#010101" stroke-linecap="round" stroke-linejoin="round" stroke-width=".5"/><line x1="24.96" y1="36.22" x2="24.28" y2="40.12" fill="none" stroke="#010101" stroke-linecap="round" stroke-linejoin="round" stroke-width=".5"/><line x1="28.84" y1="36.22" x2="28.84" y2="40.12" fill="none" stroke="#010101" stroke-linecap="round" stroke-linejoin="round" stroke-width=".5"/><line x1="44.49" y1="36.22" x2="48.51" y2="41.97" fill="none" stroke="#010101" stroke-linecap="round" stroke-linejoin="round" stroke-width=".5"/><line x1="40.61" y1="36.22" x2="43.62" y2="41.97" fill="none" stroke="#010101" stroke-linecap="round" stroke-linejoin="round" stroke-width=".5"/><line x1="36.73" y1="36.22" x2="38.73" y2="41.97" fill="none" stroke="#010101" stroke-linecap="round" stroke-linejoin="round" stroke-width=".5"/><line x1="32.84" y1="36.22" x2="33.53" y2="40.12" fill="none" stroke="#010101" stroke-linecap="round" stroke-linejoin="round" stroke-width=".5"/><line x1="6.02" y1="40.12" x2="51.73" y2="40.12" fill="none" stroke="#010101" stroke-linecap="round" stroke-linejoin="round" stroke-width=".5"/><line x1="8.18" y1="38.17" x2="49.66" y2="38.17" fill="none" stroke="#010101" stroke-linecap="round" stroke-linejoin="round" stroke-width=".5"/><line x1="8.51" y1="9.74" x2="49.4" y2="9.74" fill="none" stroke="#010101" stroke-linecap="round" stroke-linejoin="round" stroke-width=".5"/><line x1="32.47" y1="28.57" x2="27.09" y2="28.57" fill="none" stroke="#010101" stroke-linecap="round" stroke-linejoin="round" stroke-width=".5"/><line x1="37.48" y1="28.57" x2="35.18" y2="28.57" fill="none" stroke="#010101" stroke-linecap="round" stroke-linejoin="round" stroke-width=".5"/><polyline points="17.3 14.04 20.56 15.32 22.57 28.57 24.38 28.57" fill="none" stroke="#010101" stroke-linecap="round" stroke-linejoin="round" stroke-width=".5"/><polyline points="20.85 17.23 36.68 17.23 34.97 24.67" fill="none" stroke="#010101" stroke-linecap="round" stroke-linejoin="round" stroke-width=".5"/><line x1="36.68" y1="24.67" x2="21.98" y2="24.67" fill="none" stroke="#010101" stroke-linecap="round" stroke-linejoin="round" stroke-width=".5"/><circle cx="25.74" cy="28.57" r="1.35" fill="none" stroke="#010101" stroke-linecap="round" stroke-linejoin="round" stroke-width=".5"/><circle cx="33.83" cy="28.57" r="1.35" fill="none" stroke="#010101" stroke-linecap="round" stroke-linejoin="round" stroke-width=".5"/></svg>