<?xml version="1.0" encoding="UTF-8"?><svg id="Layer_1" xmlns="http://www.w3.org/2000/svg" viewBox="0 0 58.07 56.58"><circle cx="32.96" cy="31.48" r="14.26" fill="none" stroke="#010101" stroke-linecap="round" stroke-linejoin="round" stroke-width=".5"/><circle cx="32.96" cy="31.48" r="11.38" fill="none" stroke="#010101" stroke-linecap="round" stroke-linejoin="round" stroke-width=".5"/><path d="M43.03,41.54s-1.4,1.2-1.36,1.16l4.56,4.56,1.26-1.26,1.26-1.26-4.56-4.56s-1.16,1.36-1.16,1.36Z" fill="none" stroke="#010101" stroke-linecap="round" stroke-linejoin="round" stroke-width=".5"/><path d="M50.3,44.87c-.47-.46-1.22-.46-1.68,0l-1.13,1.13-1.13,1.13c-.46.46-.47,1.22,0,1.68l7.16,7.17c.46.46,1.21.47,1.68,0,.54-.54,1.14-1.13,1.14-1.13,0,0,.6-.6,1.13-1.14.46-.47.46-1.22,0-1.68l-7.17-7.16Z" fill="none" stroke="#010101" stroke-linecap="round" stroke-linejoin="round" stroke-width=".5"/><line x1="35.1" y1="25.2" x2="26.87" y2="36.35" fill="none" stroke="#010101" stroke-linecap="round" stroke-linejoin="round" stroke-width=".5"/><line x1="34.85" y1="32.51" x2="31.07" y2="37.64" fill="none" stroke="#010101" stroke-linecap="round" stroke-linejoin="round" stroke-width=".5"/><path d="M9.31,4.28s1.57,3.07,1.57,7.61" fill="none" stroke="#010101" stroke-linecap="round" stroke-linejoin="round" stroke-width=".5"/><line x1="10.51" y1="16.69" x2="10.05" y2="20.72" fill="none" stroke="#010101" stroke-linecap="round" stroke-linejoin="round" stroke-width=".5"/><polyline points="39.92 22.47 37.43 21.01 37.34 41.99" fill="none" stroke="#010101" stroke-linecap="round" stroke-linejoin="round" stroke-width=".5"/><path d="M25.74,43.78c-.66.01-1.32.02-2,.02-7.32,0-13.6-.74-13.6-.74l-.09-22.34-3.24,2.19L.25,14.69S6.54,7.57,9.31,4.28C12.08,1,18,.25,18,.25c0,0,1.47,1.99,5.74,1.99s5.74-1.99,5.74-1.99c0,0,5.91.75,8.69,4.03,2.77,3.29,9.06,10.41,9.06,10.41l-4.85,6.07" fill="none" stroke="#010101" stroke-linecap="round" stroke-linejoin="round" stroke-width=".5"/><path d="M38.17,4.28s-1.57,3.07-1.57,7.61" fill="none" stroke="#010101" stroke-linecap="round" stroke-linejoin="round" stroke-width=".5"/><line x1="37.1" y1="17.82" x2="36.97" y2="16.69" fill="none" stroke="#010101" stroke-linecap="round" stroke-linejoin="round" stroke-width=".5"/><path d="M18,.25s.13,5.14,5.74,5.14S29.48.25,29.48.25" fill="none" stroke="#010101" stroke-linecap="round" stroke-linejoin="round" stroke-width=".5"/></svg>