<svg width="117" height="110" viewBox="0 0 117 110" fill="none" xmlns="http://www.w3.org/2000/svg">
<path d="M7.61 105.14H7.52L2.68 97.89V108.95H0V93.47H2.9L7.61 100.79L12.32 93.47H15.22V108.95H12.5V97.85L7.61 105.15V105.14Z" fill="#00A1E1"/>
<path d="M38.44 108.94H35.56L33.99 105.2H26.67L25.08 108.94H22.29L29.1 93.35H31.62L38.43 108.94H38.44ZM30.33 96.6L27.68 102.79H33.01L30.33 96.6Z" fill="#00A1E1"/>
<path d="M59.24 108.94H55.94L50.65 101.97L48.24 104.45V108.94H45.52V93.46H48.24V101.24L55.6 93.46H58.94L52.5 100.12L59.22 108.94H59.24Z" fill="#00A1E1"/>
<path d="M77.47 95.89H68.71V99.92H76.47V102.35H68.71V106.51H77.58V108.94H65.99V93.46H77.47V95.89Z" fill="#00A1E1"/>
<path d="M95.16 108.94L91.36 103.54H87.95V108.94H85.23V93.46H92.13C95.69 93.46 97.88 95.34 97.88 98.37C97.88 100.94 96.35 102.48 94.19 103.08L98.37 108.94H95.16ZM91.91 95.94H87.95V101.14H91.93C93.88 101.14 95.12 100.12 95.12 98.53C95.12 96.83 93.93 95.94 91.91 95.94Z" fill="#00A1E1"/>
<path d="M111.62 99.96C114.89 100.76 116.6 101.93 116.6 104.52C116.6 107.44 114.32 109.16 111.07 109.16C108.7 109.16 106.47 108.34 104.61 106.68L106.25 104.73C107.73 106.01 109.21 106.74 111.14 106.74C112.82 106.74 113.88 105.97 113.88 104.77C113.88 103.64 113.26 103.05 110.39 102.38C107.09 101.58 105.24 100.61 105.24 97.74C105.24 95.04 107.45 93.23 110.53 93.23C112.79 93.23 114.58 93.92 116.15 95.18L114.69 97.24C113.3 96.2 111.9 95.65 110.49 95.65C108.9 95.65 107.97 96.47 107.97 97.51C107.97 98.73 108.68 99.26 111.64 99.96H111.62Z" fill="#00A1E1"/>
<path d="M14.37 73.78C14.37 76.02 13.12 77.17 11.76 77.87C13.9 78.6 15.38 79.82 15.38 82.33C15.38 85.61 12.7 87.36 8.63 87.36H0.19V69.11H8.37C12.05 69.11 14.36 70.91 14.36 73.78H14.37ZM11.16 74.31C11.16 72.82 10.01 71.96 7.95 71.96H3.34V76.81H7.72C9.78 76.81 11.16 76 11.16 74.31ZM12.18 81.99C12.18 80.43 10.95 79.51 8.43 79.51H3.34V84.51H8.66C10.85 84.51 12.18 83.65 12.18 81.98V81.99Z" fill="white"/>
<path d="M35.93 87.36L31.45 81H27.44V87.36H24.23V69.11H32.36C36.56 69.11 39.14 71.33 39.14 74.9C39.14 77.92 37.34 79.75 34.79 80.45L39.72 87.36H35.93ZM32.1 72.04H27.43V78.16H32.12C34.41 78.16 35.87 76.96 35.87 75.08C35.87 73.07 34.46 72.03 32.09 72.03L32.1 72.04Z" fill="white"/>
<path d="M65.75 87.36H62.36L60.51 82.95H51.88L50 87.36H46.72L54.75 68.98H57.72L65.75 87.36ZM56.19 72.82L53.06 80.12H59.34L56.19 72.82Z" fill="white"/>
<path d="M86.85 69.12H90V87.37H87.32L77.26 74.39V87.37H74.11V69.12H77.08L86.85 81.74V69.12Z" fill="white"/>
<path d="M106.72 87.36H99.92V69.11H106.72C112.45 69.11 116.42 73.05 116.42 78.21C116.42 83.37 112.46 87.36 106.72 87.36ZM106.72 72.04H103.12V84.45H106.72C110.55 84.45 113.05 81.87 113.05 78.27C113.05 74.67 110.55 72.04 106.72 72.04Z" fill="white"/>
<path d="M77.68 25.16C78.9 24.37 79.97 23.49 80.84 22.49C82.59 20.5 83.47 17.75 83.47 14.31V14.17C83.47 11.82 83 9.72 82.08 7.94C81.16 6.16 79.83 4.65 78.12 3.46C76.45 2.3 74.42 1.42 72.08 0.84C69.79 0.28 67.22 0 64.44 0H44.3C38.13 0.02 33.13 4.99 33.13 11.16H64.5C66.67 11.16 68.37 11.54 69.55 12.29C70.62 12.97 71.14 14.02 71.14 15.5V15.64C71.14 16.97 70.65 17.98 69.64 18.76C68.56 19.58 66.72 20 64.17 20L47.72 20.03V30.32H47.74C47.74 30.32 55.5 30.32 56.98 30.32L66.3 30.46C67.76 30.64 68.89 31 69.64 31.57C70.66 32.34 71.15 33.35 71.14 34.69V34.83C71.14 36.31 70.62 37.36 69.55 38.04C68.37 38.79 66.67 39.17 64.5 39.17L47.71 39.13L47.69 50.3H64.44C67.22 50.3 69.8 50.05 72.09 49.49C74.43 48.91 76.46 48.03 78.13 46.87C79.84 45.68 81.17 44.17 82.09 42.39C83.01 40.61 83.48 38.52 83.48 36.16V36.02C83.48 32.57 82.6 29.82 80.85 27.84C79.97 26.84 78.9 25.96 77.69 25.17L77.68 25.16Z" fill="white"/>
<path d="M45.09 50.22V13.93H33.26V38.41C33.28 44.93 38.57 50.21 45.09 50.22Z" fill="#00A1E1"/>
</svg>
