<svg width="200" height="51" viewBox="0 0 200 51" fill="none" xmlns="http://www.w3.org/2000/svg">
<path d="M80.63 7.17C80.63 9.79 79.17 11.13 77.58 11.96C80.08 12.81 81.82 14.25 81.82 17.17C81.82 21.01 78.68 23.05 73.92 23.05H64.04V1.71H73.61C77.91 1.71 80.62 3.81 80.62 7.17H80.63ZM76.88 7.78C76.88 6.04 75.54 5.04 73.13 5.04H67.73V10.71H72.85C75.26 10.71 76.87 9.77 76.87 7.78H76.88ZM78.07 16.78C78.07 14.95 76.64 13.88 73.68 13.88H67.73V19.73H73.95C76.51 19.73 78.07 18.72 78.07 16.77V16.78Z" fill="#323E48"/>
<path d="M105.85 23.06L100.61 15.62H95.91V23.06H92.16V1.71H101.67C106.58 1.71 109.6 4.3 109.6 8.48C109.6 12.02 107.5 14.15 104.51 14.97L110.27 23.05H105.85V23.06ZM101.37 5.13H95.91V12.29H101.4C104.08 12.29 105.79 10.89 105.79 8.69C105.79 6.34 104.14 5.12 101.37 5.12V5.13Z" fill="#323E48"/>
<path d="M140.74 23.06H136.78L134.62 17.91H124.53L122.34 23.06H118.5L127.87 1.56H131.35L140.74 23.06ZM129.55 6.04L125.89 14.58H133.24L129.55 6.04Z" fill="#323E48"/>
<path d="M165.42 1.71H169.11V23.05H165.97L154.2 7.87V23.05H150.51V1.71H153.99L165.42 16.47V1.71Z" fill="#323E48"/>
<path d="M188.66 23.06H180.7V1.72H188.66C195.37 1.72 200 6.32 200 12.36C200 18.4 195.36 23.06 188.66 23.06ZM188.66 5.13H184.45V19.64H188.66C193.14 19.64 196.07 16.62 196.07 12.41C196.07 8.2 193.14 5.12 188.66 5.12V5.13Z" fill="#323E48"/>
<path d="M72.67 44.74L67.02 36.27V49.18H63.9V31.11H67.28L72.78 39.66L78.28 31.11H81.66V49.18H78.48V36.22L72.78 44.74H72.67Z" fill="#00A1E1"/>
<path d="M108.77 49.18H105.41L103.58 44.82H95.03L93.17 49.18H89.92L97.87 30.98H100.81L108.76 49.18H108.77ZM99.29 34.77L96.19 42H102.41L99.29 34.77Z" fill="#00A1E1"/>
<path d="M129.19 49.18L123.02 41.05L120.21 43.94V49.18H117.03V31.11H120.21V40.2L128.81 31.11H132.71L125.2 38.88L133.05 49.18H129.19Z" fill="#00A1E1"/>
<path d="M154.32 33.95H144.1V38.65H153.16V41.49H144.1V46.34H154.45V49.18H140.92V31.11H154.32V33.95Z" fill="#00A1E1"/>
<path d="M174.98 49.18L170.54 42.88H166.56V49.18H163.38V31.11H171.43C175.59 31.11 178.14 33.3 178.14 36.84C178.14 39.83 176.36 41.64 173.83 42.34L178.71 49.18H174.97H174.98ZM166.56 34V40.07H171.21C173.48 40.07 174.93 38.88 174.93 37.02C174.93 35.03 173.54 34 171.19 34H166.56Z" fill="#00A1E1"/>
<path d="M194.19 38.69C198.01 39.62 200 40.99 200 44.01C200 47.42 197.34 49.43 193.55 49.43C190.79 49.43 188.18 48.48 186.01 46.54L187.92 44.27C189.65 45.77 191.38 46.62 193.63 46.62C195.59 46.62 196.83 45.72 196.83 44.32C196.83 43 196.11 42.31 192.75 41.53C188.9 40.6 186.74 39.47 186.74 36.11C186.74 32.96 189.32 30.84 192.91 30.84C195.54 30.84 197.63 31.64 199.47 33.11L197.77 35.51C196.14 34.3 194.52 33.65 192.87 33.65C191.01 33.65 189.93 34.6 189.93 35.82C189.93 37.24 190.76 37.86 194.22 38.68L194.19 38.69Z" fill="#00A1E1"/>
<path d="M45.15 25.49C46.38 24.69 47.47 23.8 48.36 22.79C50.13 20.78 51.03 17.99 51.02 14.5V14.36C51.02 11.98 50.54 9.85 49.61 8.05C48.68 6.25 47.33 4.72 45.6 3.51C43.91 2.33 41.85 1.44 39.48 0.86C37.15 0.28 34.55 0 31.73 0H11.32C5.06 0.02 0 5.06 0 11.31H31.78C33.98 11.31 35.7 11.69 36.9 12.45C37.98 13.14 38.51 14.2 38.51 15.7V15.84C38.51 17.19 38.02 18.21 36.99 19C35.9 19.83 34.03 20.25 31.45 20.26L14.78 20.3V30.72H14.8C14.8 30.72 22.67 30.72 24.16 30.72L33.61 30.86C35.09 31.04 36.24 31.41 36.99 31.98C38.02 32.76 38.52 33.79 38.51 35.14V35.28C38.51 36.78 37.98 37.84 36.9 38.53C35.7 39.29 33.98 39.68 31.78 39.67L14.76 39.63L14.74 50.95H31.72C34.54 50.95 37.15 50.7 39.47 50.13C41.84 49.55 43.9 48.65 45.59 47.48C47.32 46.27 48.67 44.75 49.6 42.94C50.53 41.14 51 39.01 51.01 36.63V36.49C51.01 33 50.12 30.21 48.35 28.2C47.46 27.19 46.38 26.29 45.14 25.5L45.15 25.49Z" fill="#323E48"/>
<path d="M12.11 50.89V14.11H0.13V38.92C0.15 45.52 5.51 50.88 12.12 50.89H12.11Z" fill="#00A1E1"/>
</svg>
