<svg width="291" height="35" viewBox="0 0 291 35" fill="none" xmlns="http://www.w3.org/2000/svg">
<path d="M60.0339 13.3922C60.0339 15.4351 58.899 16.4776 57.6631 17.1165C59.6051 17.7807 60.9587 18.8904 60.9587 21.1687C60.9587 24.1531 58.5206 25.742 54.8216 25.742H47.1377V9.15515H54.5778C57.9238 9.15515 60.0255 10.7945 60.0255 13.4006L60.0339 13.3922ZM57.1167 13.8714C57.1167 12.5179 56.0742 11.7361 54.1995 11.7361H50.0044V16.1413H53.9893C55.8641 16.1413 57.1167 15.4099 57.1167 13.863V13.8714ZM58.0415 20.866C58.0415 19.4452 56.9233 18.6129 54.6282 18.6129H50.0044V23.1611H54.8384C56.8309 23.1611 58.0415 22.3793 58.0415 20.8576V20.866Z" fill="#323E48"/>
<path d="M79.6473 25.742L75.5699 19.9581H71.9213V25.742H69.0041V9.15515H76.4022C80.2189 9.15515 82.5645 11.1728 82.5645 14.4179C82.5645 17.167 80.9251 18.8231 78.6048 19.462L83.0857 25.742H79.6473ZM76.1584 11.8033H71.9129V17.3771H76.1836C78.2685 17.3771 79.5968 16.2842 79.5968 14.5776C79.5968 12.7533 78.319 11.8033 76.1584 11.8033Z" fill="#323E48"/>
<path d="M106.768 25.742H103.691L102.01 21.7319H94.166L92.4594 25.742H89.475L96.7722 9.02904H99.4708L106.768 25.742ZM98.0669 12.5179L95.2253 19.151H100.942L98.0753 12.5179H98.0669Z" fill="#323E48"/>
<path d="M125.953 9.15515H128.819V25.7504H126.381L117.235 13.9471V25.7504H114.368V9.15515H117.067L125.953 20.6306V9.15515Z" fill="#323E48"/>
<path d="M144.019 25.742H137.832V9.15515H144.019C149.231 9.15515 152.838 12.7365 152.838 17.4276C152.838 22.1186 149.231 25.7504 144.019 25.7504V25.742ZM144.019 11.8033H140.749V23.0854H144.019C147.5 23.0854 149.778 20.7399 149.778 17.4696C149.778 14.1993 147.5 11.8033 144.019 11.8033Z" fill="#323E48"/>
<path d="M173.83 21.6647H173.738L168.551 13.8883V25.742H165.684V9.15515H168.786L173.83 16.9988L178.883 9.15515H181.985V25.7504H179.068V13.8546L173.83 21.6815V21.6647Z" fill="#00A1E1"/>
<path d="M206.886 25.742H203.801L202.119 21.7319H194.276L192.569 25.742H189.585L196.882 9.02904H199.581L206.878 25.742H206.886ZM198.185 12.5179L195.343 19.151H201.06L198.193 12.5179H198.185Z" fill="#00A1E1"/>
<path d="M229.173 25.742H225.642L219.976 18.2767L217.395 20.9333V25.742H214.478V9.15515H217.395V17.4948L225.289 9.15515H228.87L221.968 16.2926L229.173 25.7504V25.742Z" fill="#00A1E1"/>
<path d="M248.711 11.7613H239.32V16.0741H247.643V18.6802H239.32V23.1359H248.828V25.742H236.411V9.15515H248.711V11.7613Z" fill="#00A1E1"/>
<path d="M267.677 25.742L263.599 19.9581H259.951V25.742H257.034V9.15515H264.432C268.248 9.15515 270.594 11.1728 270.594 14.4179C270.594 17.167 268.955 18.8231 266.634 19.462L271.115 25.742H267.677ZM264.196 11.8033H259.951V17.3771H264.221C266.306 17.3771 267.635 16.2842 267.635 14.5776C267.635 12.7533 266.357 11.8033 264.196 11.8033Z" fill="#00A1E1"/>
<path d="M285.323 16.1245C288.829 16.982 290.653 18.2346 290.653 21.0089C290.653 24.1363 288.206 25.9858 284.726 25.9858C282.187 25.9858 279.799 25.1115 277.807 23.3292L279.564 21.2443C281.153 22.6231 282.742 23.4049 284.802 23.4049C286.601 23.4049 287.744 22.5726 287.744 21.2948C287.744 20.0842 287.08 19.4452 283.995 18.7306C280.464 17.8815 278.471 16.8307 278.471 13.7537C278.471 10.8618 280.842 8.91975 284.137 8.91975C286.559 8.91975 288.475 9.65116 290.157 11.0047L288.593 13.2073C287.097 12.0892 285.609 11.5007 284.087 11.5007C282.38 11.5007 281.388 12.375 281.388 13.4931C281.388 14.7962 282.145 15.3679 285.323 16.1245Z" fill="#00A1E1"/>
<path d="M30.9039 17.4528C31.7446 16.9063 32.4928 16.2926 33.0981 15.6033C34.3087 14.2245 34.9224 12.3162 34.9224 9.92859V9.83611C34.9224 8.20516 34.5945 6.75077 33.964 5.51495C33.3251 4.27913 32.4087 3.23667 31.2233 2.41279C30.0716 1.60572 28.6592 1.00042 27.0367 0.596892C25.431 0.193359 23.6487 0 21.7151 0H7.74278C3.46366 0.00840693 0 3.46366 0 7.74278H21.7571C23.262 7.74278 24.4389 8.0034 25.2544 8.52463C25.9942 8.99542 26.3557 9.72682 26.3557 10.7525V10.8449C26.3557 11.7697 26.0195 12.4675 25.3133 13.0055C24.5651 13.5772 23.2872 13.863 21.5217 13.863L10.1135 13.8883V21.0257H10.1219C10.1219 21.0257 15.5108 21.0257 16.528 21.0257L22.993 21.1182C24.0018 21.2443 24.792 21.4881 25.3049 21.8832C26.011 22.4213 26.3473 23.1191 26.3473 24.0438V24.1363C26.3473 25.1619 25.9858 25.8933 25.246 26.3641C24.4221 26.8854 23.2452 27.146 21.7487 27.146L10.1051 27.1208V34.8635H21.7151C23.6487 34.8635 25.431 34.6954 27.0199 34.3003C28.6424 33.8967 30.0548 33.2914 31.2065 32.4844C32.3919 31.6605 33.3167 30.618 33.9472 29.3822C34.5861 28.1464 34.9056 26.692 34.9056 25.0611V24.9686C34.9056 22.581 34.3003 20.6726 33.0813 19.2939C32.476 18.6045 31.7278 17.9908 30.8871 17.4444L30.9039 17.4528Z" fill="#323E48"/>
<path d="M8.28923 34.8299V9.65956H0.0840693V26.6416C0.0924762 31.1645 3.7663 34.8299 8.28923 34.8299Z" fill="#00A1E1"/>
</svg>
