<svg width="815" height="676" viewBox="0 0 815 676" fill="none" xmlns="http://www.w3.org/2000/svg">
<g clip-path="url(#clip0_406_323)">
<path d="M528.077 146.289C530.308 163.754 473.264 214.29 468.826 178.188C468.022 171.647 473.329 165.27 470.765 157.519C451.116 164.55 432.25 174.654 417.284 189.633C412.673 194.248 404.826 205.139 400.898 210.581C393.661 220.649 386.729 230.932 380.109 241.417C377.784 245.133 375.564 249.394 373.349 252.857C370.099 241.491 366.409 230.255 362.289 219.174C360.709 214.951 358.935 210.778 357.305 206.536C351.415 191.211 348.944 178.858 340.444 164.411C324.239 135.991 284.399 145.065 270.814 170.9C265.499 181.003 262.359 195.388 268.944 206.234C269.78 207.615 279.592 218.577 280.759 218.811C291.204 220.888 289.974 226.47 301.214 224.297C301.799 225.998 303.84 231.599 303.89 233.117C304.245 244.023 303.844 255.1 304.354 266.046L164.595 265.828C164.62 261.567 165.924 243.6 164.914 241.62C161.424 239.872 151.699 239.769 148.274 241.619C146.924 244.561 147.629 261.443 147.699 265.816C128.439 266.752 117.709 271.145 109.869 289.564C106.809 289.566 96.4294 288.991 95.0194 291.741C89.1845 303.121 90.3743 320.858 91.6092 333.222C92.8842 346.017 96.8093 344.242 106.564 345.192L103.394 439.527C103.079 450.662 102.449 461.717 102.489 472.862C102.519 480.442 104.775 485.982 112.599 487.922L113.879 488.877C106.933 488.912 76.5989 488.047 72.3339 491.972C70.7589 493.427 70.084 496.347 69.744 498.367C68.9041 503.347 68.9291 508.702 68.6141 513.762C67.9891 523.807 67.3887 533.902 66.4237 543.917C65.8687 545.957 65.9946 548.762 65.9696 550.942C65.8246 556.427 65.6388 561.913 65.4188 567.393C64.9541 568.048 64.9389 568.928 65.3788 569.603C65.5187 582.067 63.7093 596.778 79.7391 597.893C93.5691 598.863 107.16 599.322 121.015 599.782C147.789 600.672 174.57 601.308 201.354 601.688C239.209 602.382 277.075 602.742 314.934 602.762C326.025 602.747 365.069 603.112 378.484 601.112C379.554 600.952 381.384 594.877 381.324 593.882C382.964 571.352 384.074 548.687 384.684 526.103C384.889 518.613 384.129 510.422 383.419 502.957C383.044 499.022 382.234 496.747 380.104 493.407C370.679 492.157 353.879 491.652 344.214 491.242C316.314 490.182 288.399 489.602 260.484 489.492C272.234 486.377 281.15 483.232 292.474 478.522C313.694 485.447 342.544 494.697 363.964 483.962C375.919 477.972 383.509 465.568 391.974 455.518C405.524 466.017 424.176 480.167 442.111 479.802C428.642 544.712 413.618 609.782 401.837 675.007C436.526 675.037 474.072 675.742 508.61 675.042C513.226 662.082 517.425 648.942 522.132 636.007C522.961 633.732 524.108 630.802 524.662 628.492C526.298 628.627 526.889 628.393 528.049 629.188C528.554 640.258 532.282 663.692 533.89 675.077C568.414 674.922 605.014 674.517 639.425 675.172C642.484 656.467 644.448 632.402 646.165 613.297C650.829 561.382 657.091 513.467 643.539 462.372C645.243 462.242 646.737 461.492 648.344 460.847C648.123 455.767 646.558 447.367 645.724 442.202C643.934 431.637 642.288 421.047 640.784 410.438C650.762 404.148 661.731 396.077 667.596 385.657C682.921 358.432 673.038 315.827 665.661 287.387C666.394 286.989 666.884 286.653 667.581 286.196C667.614 286.025 667.648 285.853 667.681 285.681C661.729 259.424 639.851 208.025 625.037 188.244C602.22 157.777 561.002 150.662 528.077 146.289ZM209.819 326.013C216.399 324.11 262.463 324.41 271.159 324.908C282.494 329.055 280.569 346.162 291.164 351.117C295.029 352.927 305.288 350.063 306.954 352.632L306.834 354.662C303.854 356.807 300.714 353.158 299.309 357.047L299.544 358.367C300.964 359.192 305.589 358.907 307.519 358.907C307.649 364.672 309.429 368.307 309.164 373.067C304.404 373.557 299.929 374.928 295.309 376.143C287.02 367.448 279.229 374.112 276.534 383.747C261.424 394.367 247.58 402.657 240.14 421.002C239.58 422.352 239.249 424.072 237.819 424.752C235.459 425.882 213.989 425.253 210.484 424.808C208.144 424.518 205.769 423.952 203.664 422.872C201.194 421.607 199.189 419.597 198.309 416.933C196.869 412.557 194.079 351.817 194.599 344.787C194.814 341.722 195.689 338.737 197.159 336.042C199.889 331.157 204.439 327.554 209.819 326.013ZM431.628 319.755C436.67 345.383 438.167 372.609 439.724 398.648C439.882 401.298 439.941 404.198 439.877 406.848C427.527 408.233 413.567 417.183 400.926 419.868C394.173 421.298 398.701 424.628 389.32 422.983C378.136 395.564 362.316 371.813 330.526 371.338C327.726 371.298 314.256 371.958 313.036 371.558C312.591 370.578 313.106 369.088 313.401 367.813C314.801 361.773 315.201 357.673 315.321 351.508C323.531 351.363 335.036 352.668 343.126 350.283C343.441 350.188 355.03 354.668 358.681 354.823C380.8 355.753 400.409 340.993 416.097 327.15C416.993 328.182 416.897 328.174 418.176 328.611C421.294 327.953 427.812 321.774 430.784 319.375L431.628 319.755Z" fill="#323E48"/>
<path d="M665.661 287.387C666.394 286.989 666.884 286.653 667.58 286.196C667.613 286.025 667.647 285.853 667.68 285.681C661.729 259.424 639.851 208.025 625.037 188.245C602.219 157.777 561.002 150.662 528.077 146.289C530.308 163.754 473.264 214.291 468.826 178.188C468.022 171.647 473.329 165.27 470.764 157.519C451.115 164.55 432.25 174.654 417.284 189.633C412.672 194.248 404.826 205.139 400.898 210.581C393.661 220.649 386.729 230.932 380.109 241.417C377.784 245.133 375.564 249.394 373.349 252.857C373.804 255.006 374.164 257.167 374.959 259.204C377.944 262.262 384.674 274.167 387.205 278.323C396.415 293.435 405.001 308.973 414.275 324.071L416.095 327.15C416.992 328.182 416.895 328.173 418.174 328.61C421.293 327.952 427.809 321.773 430.782 319.374L431.625 319.754C436.667 345.382 438.165 372.607 439.722 398.647C439.88 401.297 439.939 404.197 439.875 406.847C447.018 407.017 463.144 409.587 468.023 408.227C478.418 405.327 494.32 396.542 504.268 391.607C533.194 377.257 559.668 361.827 590.264 351.072C583.487 334.257 579.312 316.486 571.426 300.133C568.821 294.732 557.008 258.368 558.29 254.283L559.103 254.023C560.075 254.521 561.001 255.24 561.304 256.356C565.386 271.39 570.08 286.258 575.771 300.764C577.271 304.586 578.514 305.887 580.266 309.203C584.511 307.626 596.547 305.785 601.926 304.381C621.084 299.38 643.465 295.079 662.023 288.518C663.165 288.317 664.531 287.774 665.661 287.387Z" fill="#50BCE4"/>
<path d="M431.628 319.755L433.762 319.007C433.988 318.367 434.206 318.074 434.096 317.474C433.008 311.521 429.255 274.53 426.371 272.191L424.536 272.562C424.107 273.441 423.988 274.784 424.2 275.721C427.421 289.985 427.945 305.15 430.784 319.375L431.628 319.755Z" fill="#323E48"/>
<path d="M662.024 288.518C643.466 295.079 621.085 299.38 601.927 304.381C596.548 305.785 584.512 307.626 580.267 309.203C584.061 322.989 588.16 337.347 594.082 350.332C599.356 348.577 610.055 346.687 615.608 347.472C616.978 348.397 616.533 347.782 616.99 349.367L616.334 350.297C612.909 351.732 607.257 350.917 603.19 351.857C561.545 361.532 524.323 387.442 485.544 404.927C469.909 413.637 463.24 413.017 445.805 410.392C433.922 408.602 413.265 421.492 400.987 423.657C399.358 423.942 398.104 425.172 398.063 426.907C401.607 435.262 420.928 426.382 429.46 430.522C430.555 431.912 430.31 431.142 430.212 432.917C428.784 435.582 426.957 437.107 424.597 438.912C417.224 444.552 412.275 447.112 402.825 445.912C399.172 448.557 397.629 449.997 394.459 453.212C408.367 461.642 419.897 451.492 427.296 453.452L427.66 454.112C425.501 458.832 408.17 459.832 403.115 459.947C415.17 468.892 429.182 458.987 433.921 462.227C433.771 466.857 417.072 467.202 413.788 467.372C423.107 472.582 428.145 471.137 438.139 469.447C440.082 469.117 440.626 468.762 441.888 469.672L441.742 470.977C438.772 474.767 432.245 472.717 430.957 474.742C432.465 475.237 435.384 476.062 436.868 476.172C452.181 477.287 473.678 458.637 485.572 449.422C514.782 445.782 545.221 441.267 573.632 433.222C601.381 425.367 650.145 409.517 664.821 383.197C678.826 358.082 669.621 314.93 662.024 288.518Z" fill="white"/>
<path d="M374.962 259.204C376.062 264.576 380.257 283.155 378.882 289.187C378.757 289.748 378.367 289.872 377.557 290.342C376.167 289.291 375.842 287.422 375.692 285.718C373.052 255.872 361.812 228.669 351.257 200.961C345.457 185.744 342.627 168.06 329.147 156.638C314.312 144.064 287.592 152.425 277.272 167.201C268.682 179.498 265.637 192.664 273.097 206.488C272.747 202.618 271.527 193.099 272.792 189.867L273.832 188.917L274.882 189.105C278.107 195.932 271.552 211.364 286.072 217.2C284.687 212.61 280.437 190.601 283.587 187.201C285.012 187.088 284.357 186.923 285.587 187.837C287.997 195.934 283.472 224.267 299.322 220.923L299.887 220.292C298.947 213.256 293.382 193.35 295.592 186.839L296.542 186.043C299.677 186.542 299.107 197.573 299.667 201.029C300.672 207.224 307.242 239.553 312.842 241.321C322.032 239.197 314.672 218.492 314.192 212.178C313.802 207.076 311.552 188.314 317.242 185.862L318.227 186.136C319.147 188.321 318.232 189.086 318.352 190.454C322.507 197.57 325.552 218.796 335.947 214.619C337.887 212.429 333.917 202.61 333.407 199.637C332.577 194.765 330.962 181.141 333.277 177.12C334.672 176.686 333.992 176.663 335.382 177.242C336.282 179.302 335.822 182.642 335.687 184.847C335.217 191.957 336.637 199.11 338.747 205.836C340.012 209.868 343.172 216.066 337.477 217.941C323.182 222.646 320.022 204.264 317.297 195.132C316.852 200.912 317.032 204.428 317.592 210.272C318.522 220.046 325.002 235.366 317.002 243.473C313.632 246.889 310.182 244.621 307.437 241.926C307.222 249.954 307.307 257.986 307.692 266.008C337.907 265.959 352.207 264.695 351.637 302.066C351.422 316.339 350.002 333.373 345.662 346.983C369.482 361.418 396.712 337.878 414.278 324.071C405.004 308.973 396.418 293.435 387.208 278.323C384.677 274.168 377.947 262.263 374.962 259.204Z" fill="white"/>
<path d="M640.784 410.438C607.66 429.798 562.676 440.797 525.224 447.542C513.348 449.677 498.859 450.652 487.275 453.347C485.107 453.847 475.343 461.838 472.827 463.718C468.535 466.888 464.14 469.917 459.647 472.792C521.091 479.787 583.278 476.262 643.54 462.372C645.244 462.242 646.737 461.492 648.344 460.847C648.124 455.767 646.559 447.368 645.724 442.203C643.935 431.638 642.288 421.047 640.784 410.438Z" fill="#50BCE4"/>
<path d="M518.254 550.172C515.491 547.557 503.258 538.292 499.724 537.422C498.471 538.392 498.903 537.802 498.335 539.232C500.47 542.347 511.104 549.167 514.978 552.112C517.956 569.467 519.305 589.077 521.816 606.597C522.566 611.837 523.449 624.187 524.664 628.492C526.3 628.627 526.891 628.392 528.051 629.187C526.608 609.507 522.961 589.547 521.156 569.862C520.58 563.577 519.67 556.267 518.254 550.172Z" fill="#50BCE4"/>
<path d="M212.81 269.567C196.935 269.344 181.055 269.268 165.175 269.339C151.155 269.393 132.145 267.516 121.305 277.967C116.685 282.471 113.545 288.272 112.29 294.601C110.965 301.093 110.92 311.666 110.705 318.59L109.715 355.083L106.09 466.308L239.275 466.263C235.83 451.823 234.425 442.898 237.61 428.318L223.41 428.293C211.61 428.158 199.78 428.428 187.975 428.458C176.545 428.678 171.4 420.343 172.105 409.623C173.455 388.733 175.97 367.758 178.63 347.008C180.115 335.398 185.765 324.938 198.24 322.663C209.765 320.56 222.48 321.578 234.2 321.315C245.18 321.068 256.245 321.256 267.23 321.188C283.085 320.52 282.515 336.873 290.09 346.168C292.835 349.538 303.23 348.318 307.655 348.208L307.66 336.548C302.9 335.828 299.065 334.668 298.735 329.264C298.32 322.537 298.525 315.68 298.555 308.941L298.655 269.705C271.485 268.867 240.25 269.601 212.81 269.567Z" fill="white"/>
<path d="M149.677 301.638C136.667 299.487 124.352 308.228 122.092 321.22C119.832 334.213 128.467 346.598 141.437 348.968C154.567 351.368 167.137 342.608 169.427 329.458C171.712 316.308 162.842 303.814 149.677 301.638Z" fill="#323E48"/>
<path d="M148.535 305.173C137.465 303.628 127.215 311.28 125.545 322.332C123.88 333.383 131.42 343.718 142.455 345.503C149.7 346.678 157.015 343.868 161.615 338.143C166.21 332.423 167.38 324.673 164.67 317.851C161.965 311.029 155.8 306.187 148.535 305.173Z" fill="#50BCE4"/>
<path d="M154.106 381.493C148.291 381.478 137.611 381.023 132.541 382.663C129.911 383.513 129.291 412.168 130.461 414.403C131.951 415.723 132.246 415.658 134.286 416.063C163.086 416.758 158.721 418.398 158.416 389.488C158.371 385.448 158.146 382.773 154.106 381.493Z" fill="#323E48"/>
<path d="M154.865 396.348L133.655 396.753L133.36 412.728C140.56 413.008 147.77 412.893 154.955 412.388C155.22 406.613 155.1 402.083 154.865 396.348Z" fill="#50BCE4"/>
<path d="M154.624 385.032C147.754 384.677 140.864 384.772 133.999 385.317L133.769 393.302C140.754 393.237 147.734 393.102 154.719 392.887C154.719 390.292 154.659 387.632 154.624 385.032Z" fill="#50BCE4"/>
<path d="M222.049 285.543C218.634 285.433 216.154 285.52 212.734 285.7C212.569 291.383 212.594 297.07 212.809 302.751C225.744 303.282 242.334 302.387 255.784 302.295C261.144 302.165 265.974 299.538 266.194 294.004C266.549 284.981 249.679 286.068 244.604 285.973L222.049 285.543Z" fill="#323E48"/>
<path d="M248.942 289.585C238.537 289.103 226.437 289.196 216.002 289.188L215.847 299.439L228.927 299.309C235.702 299.3 260.627 301.386 262.582 294.499C261.497 288.47 253.637 289.636 248.942 289.585Z" fill="#50BCE4"/>
<path d="M283.314 385.123C267.954 391.278 249.689 406.903 243.299 422.488C234.244 444.563 242.479 467.298 251.164 487.993L257.464 486.533C273.714 482.423 285.909 478.333 300.559 470.158C298.744 466.553 296.959 462.933 295.209 459.298C283.809 435.343 274.084 411.088 283.314 385.123Z" fill="white"/>
<path d="M310.122 380.472C302.772 379.327 295.122 380.492 288.122 382.747C275.842 411.827 289.867 442.167 303.762 468.297C313.622 461.817 319.767 456.862 328.997 449.357C339.887 440.907 345.572 436.722 357.817 430.227L355.057 424.762C347.602 423.907 334.512 423.992 326.632 423.802C324.437 419.797 321.902 414.547 319.257 410.967C313.112 402.652 317.292 400.697 324.557 396.422C327.717 394.567 330.612 393.032 334.072 391.562C326.302 384.792 320.167 382.157 310.122 380.472Z" fill="white"/>
<path d="M386.91 425.967C359.31 426.917 335.915 448.712 315.405 464.682C310.17 468.757 302.745 473.012 296.935 476.272C310.01 480.702 318.96 482.867 332.435 484.767C350.83 486.647 366.095 483.217 377.455 467.802C391.009 449.417 400.747 440.552 422.09 432.327C410.856 433.667 401.757 438.557 393.962 427.337C391.579 426.757 389.318 426.387 386.91 425.967Z" fill="white"/>
<path d="M327.494 269.556L318.249 269.467C318.164 276.068 318.824 284.288 317.659 290.64C316.884 294.886 314.619 296.553 311.259 298.681C311.324 315.16 311.214 331.638 310.939 348.113L332.514 348.238C334.909 348.188 339.889 348.233 341.234 346.363C345.149 339.033 346.894 324.55 347.304 316.208C348.204 297.771 352.314 271.372 327.494 269.556Z" fill="white"/>
<path d="M240.325 469.808L105.93 469.803C106.005 476.838 105.295 480.528 111.92 484.278C115.8 485.228 144.325 484.743 149.985 484.738L245.77 484.778C243.745 479.708 242.095 474.958 240.325 469.808Z" fill="white"/>
<path d="M201.512 325.775C199.282 325.973 197.182 326.424 195.122 327.345C190.367 329.475 186.197 333.087 184.372 338.062C180.682 348.112 175.547 399.357 175.667 411.147C175.692 413.857 175.902 416.457 177.077 418.947C178.517 421.997 180.667 423.597 183.782 424.692C189.027 425.442 194.227 425.182 199.492 424.937C198.932 424.317 198.382 423.692 197.837 423.057C196.672 421.692 194.837 419.232 194.707 417.397C193.022 393.142 191.187 368.387 191.137 344.097C191.122 336.782 196.162 330.207 201.512 325.775Z" fill="#50BCE4"/>
<path d="M355.061 389.742C340.656 391.732 331.196 395.547 319.471 404.302C323.011 409.217 326.571 417.117 329.181 420.392C337.866 420.552 346.541 420.877 355.211 421.367C358.361 415.872 361.581 410.412 364.871 405.002C362.426 400.472 358.121 393.802 355.061 389.742Z" fill="#50BCE4"/>
<path d="M332.609 375.013C325.159 374.163 314.344 375.213 307.064 376.858C320.389 377.678 327.929 381.178 337.554 390.218C344.489 387.758 349.049 386.723 356.314 386.193C360.534 390.213 366.844 399.853 368.864 405.338C366.494 408.833 363.729 413.813 361.519 417.533L357.824 423.808L360.999 428.828C369.989 425.053 375.504 423.808 384.934 422.078C381.384 413.323 373.734 399.668 367.954 392.508C358.689 381.038 346.954 376.483 332.609 375.013Z" fill="white"/>
<path d="M108.766 292.943C105.486 293.021 98.0209 292.361 96.9559 295.586C93.0309 307.486 93.261 328.096 96.676 339.793C99.321 342.043 103.001 341.608 106.661 341.758C106.931 327.831 107.046 306.296 108.766 292.943Z" fill="#50BCE4"/>
<path d="M307.847 269.65C305.552 269.602 304.672 269.46 302.502 270.043C302.087 271.023 301.922 275.893 302.027 276.974C303.012 287.206 299.487 324.132 303.112 331.467C304.412 332.302 306.052 333.467 307.502 332.772C308.052 327.091 307.822 317.305 307.832 311.38C307.737 297.47 307.742 283.56 307.847 269.65Z" fill="#50BCE4"/>
<path d="M314.626 269.1L312.161 269.615C310.811 271.568 311.401 290.371 311.446 294.189C316.411 291.925 314.726 274.416 314.626 269.1Z" fill="#50BCE4"/>
<path d="M291.422 376.482C286.932 375.442 281.627 377.337 280.347 382.132C282.902 381.102 290.512 378.617 291.422 376.482Z" fill="white"/>
<path d="M421.879 436.717C417.736 437.272 410.696 440.627 407.061 442.772C412.644 442.972 417.55 439.837 421.879 436.717Z" fill="white"/>
<path d="M311.53 351.172L310.65 351.807C310.02 353.667 310.63 361.127 310.74 363.547C312.735 362.012 312.15 353.532 311.53 351.172Z" fill="#50BCE4"/>
<path d="M479.316 10.3409C464.436 -6.00455 444.572 -0.497055 428.181 9.85995C423.456 12.8459 418.637 16.2719 413.688 18.9099C401.172 24.2984 386.59 26.6169 386.135 44.0894C385.95 50.4634 388.339 56.6439 392.758 61.2404C397.025 65.6339 401.759 67.4434 407.698 68.0529C411.848 90.9139 425.855 127.856 445.095 141.741C452.554 147.123 459.374 147.739 468.248 147.247C469.124 150.661 469.963 154.085 470.765 157.518C473.33 165.27 468.023 171.647 468.827 178.187C473.265 214.29 530.308 163.753 528.077 146.289C526.17 143.04 523.861 137.2 522.357 133.602C518.559 124.482 514.923 115.296 511.449 106.048C509.883 101.905 507.887 95.7809 506.158 91.8904C519.317 84.6359 521.01 72.0654 510.727 61.1804C510.769 47.3539 509.515 26.9189 499.172 16.3544C493.72 10.7854 487.217 10.1874 479.953 10.3264L479.316 10.3409Z" fill="#323E48"/>
<path d="M466.514 49.4409C452.828 47.7774 443.189 59.7229 430.34 64.2829C422.161 67.1854 420.078 67.6884 411.283 68.2679C412.904 75.1044 414.52 80.8839 416.548 87.6184C420.328 85.4204 425.973 82.7104 430.018 85.6729L429.514 84.9544L429.829 85.9674C426.656 88.8874 423.349 87.3799 418.459 90.7664L417.94 91.1329C425.966 116.211 449.948 163.32 483.049 136.126C487.011 132.871 490.269 128.304 493.423 124.239C494.531 124.126 493.997 124.139 495.257 124.867L495.5 125.986C491.239 136.261 481.523 142.557 471.785 146.77L473.67 153.998L475.806 162.718C465.546 191.424 479.587 192.918 500.687 177.87C511.412 170.222 519.643 161.128 524.793 148.837C515.879 128.206 509.352 110.497 501.417 89.5784C503.024 88.9549 505.317 88.2194 506.895 87.2474C517.029 81.0044 515.852 65.9244 504.124 62.4829C496.238 60.1684 495.31 73.6644 490.764 76.6794C482.526 77.5529 477.621 58.5304 472.76 53.6759C470.187 51.1059 469.797 50.9789 466.514 49.4409Z" fill="white"/>
<path d="M437.515 87.9258L436.352 88.6528C435.436 91.8423 438.515 106.43 439.097 110.496C440.077 117.344 443.844 117.104 449.527 115.494C450.572 114.368 450.253 115.005 450.563 113.54C449.568 112.956 445.797 113.485 443.44 113.171C440.315 111.037 440.685 95.0723 437.515 87.9258Z" fill="#323E48"/>
<path d="M462.184 72.959C458.403 73.1255 446.292 73.8875 447.384 79.623L448.382 80.225L449.423 79.8255C455.947 75.5835 464.019 78.03 466.242 75.5805L466.109 74.833C464.606 73.273 464.429 73.3305 462.184 72.959Z" fill="#323E48"/>
<path d="M505.22 67.7676C499.843 69.3531 497.092 77.6431 499.774 82.6276C503.561 81.1036 500.377 73.6416 505.268 70.8836C505.965 70.4911 505.883 70.1406 506.117 69.3166L505.22 67.7676Z" fill="#323E48"/>
<path d="M467.539 116.039C465.76 116.75 461.864 121.668 459.309 122.79C457.692 123.5 454.965 125.15 454.167 126.759C459.696 127.145 467.629 122.09 467.539 116.039Z" fill="#323E48"/>
<path d="M458.188 84.5312C457.505 84.8913 456.754 85.3848 456.098 85.7903C454.229 89.1488 455.534 90.5612 458.089 92.9747C459.429 92.5587 459.427 92.5048 460.615 91.7218C462.246 88.4098 460.578 86.8022 458.188 84.5312Z" fill="#323E48"/>
<path d="M427.55 95C426.317 95.5525 426.344 95.6025 425.21 96.385C423.642 99.6105 424.991 100.911 427.451 102.96C432.56 100.608 430.526 98.1065 427.55 95Z" fill="#323E48"/>
<path d="M298.502 623.119C284.151 621.343 280.881 633.527 277.79 644.658C265.226 626.094 255.846 636.925 247.954 651.846C240.521 636.889 230.247 634.58 221.204 649.52C218.743 645.062 212.192 636.405 206.051 639.203C195.526 643.997 197.173 656.646 193.285 665.579C184.713 671.579 168.47 664.196 160.051 665.653C159.041 667.355 159.163 666.479 159.586 668.359C162.659 671.053 176.993 672.1 181.738 672.265C209.608 673.239 193.671 654.865 205.034 645.479C206.363 644.395 208.083 643.911 209.785 644.138C216.226 645.044 216.679 655.134 220.494 659.548L221.663 659.567C223.237 658.281 223.298 656.518 223.763 654.424C227.106 646.25 234.074 638.242 241.409 649.489C243.815 653.175 243.888 658.71 247.446 662.096L248.67 662.053C253.036 656.842 253.972 641.34 263.903 639.65C275.255 637.721 273.345 657.063 278.347 660.644L279.51 660.253C280.502 657.742 281.586 651.356 281.898 648.234C283.294 634.274 293.586 616.237 306.082 635.033C311.801 643.636 306.346 659.297 303.48 669.234L304.362 670.135C308.017 671.163 332.036 671.843 335.771 670.967L336.426 669.528L335.648 668.426C330.677 666.277 315.254 666.62 308.819 666.498C314.17 651.411 317.097 630.276 298.502 623.119Z" fill="#50BCE4"/>
<path d="M781.555 626.805C766.457 627.686 758.143 643.862 751.819 655.661C747.014 635.542 732.017 630.019 726.909 653.371C711.715 644.126 714.089 656.279 707.575 663.418C704.6 664.949 700.423 661.355 697.21 664L697.388 665.818C698.829 667.208 701.451 668.218 703.401 668.469C715.37 670.006 710.881 660.142 716.899 655.936C723.454 651.356 725.429 661.832 729.754 662.634C732.328 660.02 730.508 642.65 738.604 641.872C741.882 643.195 743.358 645.938 745.167 648.871C746.807 652.936 748.057 664.441 750.628 666.173C754.255 664.955 762.318 639.099 775.972 632.297C778.076 631.25 780.363 630.864 782.613 631.684C785.219 632.64 787.29 634.936 788.357 637.452C792.34 646.85 785.727 661.355 782.15 670.079C789.011 670.263 808.617 672.749 813.585 671.047C814.344 669.584 814.183 670.349 813.804 668.665C810.858 667.281 792.928 666.406 788.554 666.179C789.344 664.232 790.078 662.255 790.756 660.265C794.749 648.173 797.302 631.115 781.555 626.805Z" fill="#50BCE4"/>
<path d="M56.8426 638.93C47.4383 638.96 43.483 647.63 39.7115 654.793C36.9073 651.836 33.8766 649.767 30.0745 648.297C12.8331 641.636 11.6576 664.357 3.12873 668.288C1.76338 668.918 0.924517 669.176 -1.9896e-06 670.425L0.336773 671.563C2.52868 673.437 1.32866 672.984 3.88181 673.351C13.9046 669.592 17.3638 640.883 34.4582 655.896L35.0032 656.385C36.5583 658.779 37.3237 661.247 39.6135 662.459C44.2484 662 46.7709 641.005 56.2365 643.858C60.9326 649.92 55.563 660.635 53.0649 667.002C58.1161 667.406 76.6065 669.757 79.3495 668.178L79.4964 666.947C77.1453 663.181 64.1041 663.5 59.0652 663.157C62.8551 654.867 65.4388 645.04 56.8426 638.93Z" fill="#50BCE4"/>
</g>
<defs>
<clipPath id="clip0_406_323">
<rect width="814.121" height="675.351" fill="white" transform="matrix(-1 0 0 1 814.121 0)"/>
</clipPath>
</defs>
</svg>
