<svg width="35" height="35" viewBox="0 0 35 35" fill="none" xmlns="http://www.w3.org/2000/svg">
<path d="M30.9039 17.4528C31.7446 16.9063 32.4928 16.2926 33.0981 15.6033C34.3087 14.2245 34.9224 12.3162 34.9224 9.92859V9.83611C34.9224 8.20516 34.5945 6.75077 33.964 5.51495C33.3251 4.27913 32.4087 3.23667 31.2233 2.41279C30.0716 1.60572 28.6592 1.00042 27.0367 0.596892C25.431 0.193359 23.6487 0 21.7151 0H7.74278C3.46366 0.00840693 0 3.46366 0 7.74278H21.7571C23.262 7.74278 24.4389 8.0034 25.2544 8.52463C25.9942 8.99542 26.3557 9.72682 26.3557 10.7525V10.8449C26.3557 11.7697 26.0195 12.4675 25.3133 13.0055C24.5651 13.5772 23.2872 13.863 21.5217 13.863L10.1135 13.8883V21.0257H10.1219C10.1219 21.0257 15.5108 21.0257 16.528 21.0257L22.993 21.1182C24.0018 21.2443 24.792 21.4881 25.3049 21.8832C26.011 22.4213 26.3473 23.1191 26.3473 24.0438V24.1363C26.3473 25.1619 25.9858 25.8933 25.246 26.3641C24.4221 26.8854 23.2452 27.146 21.7487 27.146L10.1051 27.1208V34.8635H21.7151C23.6487 34.8635 25.431 34.6954 27.0199 34.3003C28.6424 33.8967 30.0548 33.2914 31.2065 32.4844C32.3919 31.6605 33.3167 30.618 33.9472 29.3822C34.5861 28.1464 34.9056 26.692 34.9056 25.0611V24.9686C34.9056 22.581 34.3003 20.6726 33.0813 19.2939C32.476 18.6045 31.7278 17.9908 30.8871 17.4444L30.9039 17.4528Z" fill="#323E48"/>
<path d="M8.28923 34.8299V9.65956H0.0840693V26.6416C0.0924762 31.1645 3.7663 34.8299 8.28923 34.8299Z" fill="#00A1E1"/>
</svg>
